<svg version="1.1" xmlns="http://www.w3.org/2000/svg" viewBox="0 0 3698.891238980821 2447.057397678058" width="7397.782477961642" height="4894.114795356116">
  <!-- svg-source:excalidraw -->
  
  <defs>
    <style class="style-fonts">
      @font-face { font-family: Virgil; src: url(https://unpkg.com/@excalidraw/excalidraw/dist/prod/fonts/Virgil/Virgil-Regular.woff2); }
      @font-face { font-family: Excalifont; src: url(https://unpkg.com/@excalidraw/excalidraw/dist/prod/fonts/Excalifont/Excalifont-Regular-a88b72a24fb54c9f94e3b5fdaa7481c9.woff2); }
    </style>
    
  </defs>
  <g stroke-linecap="round" transform="translate(1322.0118792955 238.63491167887332) rotate(0 515.599187858601 352.0567313966112)"><path d="M32 0 C380.32 2.4, 729.58 1.84, 999.2 0 M999.2 0 C1022.41 -0.53, 1032.32 12.07, 1031.2 32 M1031.2 32 C1029.31 165.37, 1029.83 299.91, 1031.2 672.11 M1031.2 672.11 C1029.39 692.57, 1020.9 705.54, 999.2 704.11 M999.2 704.11 C738.03 706.7, 475.4 706.94, 32 704.11 M32 704.11 C12.48 705.79, -1.45 693.08, 0 672.11 M0 672.11 C0.54 456.29, 1.37 240.48, 0 32 M0 32 C1.13 10.76, 10.21 0.2, 32 0" stroke="#1e1e1e" stroke-width="1.5" fill="none" stroke-dasharray="8 9"></path></g><g transform="translate(1334.5917806492362 195.94752049941053) rotate(0 105.1199999252949 17.5)"><text x="0" y="24.668" font-family="Virgil, Segoe UI Emoji" font-size="28px" fill="#1e1e1e" text-anchor="start" style="white-space: pre;" direction="ltr" dominant-baseline="alphabetic">injector().load()</text></g><g stroke-linecap="round" transform="translate(1414.792333774334 414.48141218846285) rotate(0 169.45600740949703 32.98571136597093)"><path d="M16.49 0 C124.32 2.62, 234.37 2.61, 322.42 0 M16.49 0 C125.58 -1.56, 231.14 -1.95, 322.42 0 M322.42 0 C333.33 0.79, 336.86 4.81, 338.91 16.49 M322.42 0 C328.84 -3.3, 334.98 5.88, 338.91 16.49 M338.91 16.49 C337.37 24.57, 338.19 30.45, 338.91 49.48 M338.91 16.49 C340.79 27.62, 340.12 43.55, 338.91 49.48 M338.91 49.48 C340.35 62.08, 332.79 69.29, 322.42 65.97 M338.91 49.48 C337.08 61.68, 337.06 69.1, 322.42 65.97 M322.42 65.97 C234.51 67.6, 151.41 63.55, 16.49 65.97 M322.42 65.97 C247.99 67.34, 173.12 65.92, 16.49 65.97 M16.49 65.97 C7.8 69.74, -1.86 59.84, 0 49.48 M16.49 65.97 C6.27 63.46, -1.86 57.31, 0 49.48 M0 49.48 C-2.08 41.61, -3.4 30.76, 0 16.49 M0 49.48 C1.65 36.58, 0.53 26.24, 0 16.49 M0 16.49 C-0.05 4.5, 8.84 -0.95, 16.49 0 M0 16.49 C1.7 4.37, 5.88 4.17, 16.49 0" stroke="#2f9e44" stroke-width="2" fill="none"></path></g><g transform="translate(1442.384341244866 429.9671235544338) rotate(0 141.8639999389652 17.5)"><text x="141.86399993896484" y="24.668" font-family="Virgil, Segoe UI Emoji" font-size="28px" fill="#2f9e44" text-anchor="middle" style="white-space: pre;" direction="ltr" dominant-baseline="alphabetic">resolve configuration</text></g><g stroke-linecap="round" transform="translate(1416.0858910828065 541.3780181891234) rotate(0 169.45600740949703 32.98571136597093)"><path d="M16.49 0 C96.41 -1.35, 180.47 -0.16, 322.42 0 M16.49 0 C134.51 -1.78, 250.92 -1.33, 322.42 0 M322.42 0 C335.25 -0.64, 334.93 5.67, 338.91 16.49 M322.42 0 C330.03 -1.78, 337.77 9.73, 338.91 16.49 M338.91 16.49 C335.74 26.54, 337.2 31.57, 338.91 49.48 M338.91 16.49 C337 30.68, 338 43.31, 338.91 49.48 M338.91 49.48 C338.18 56.83, 329.9 66.27, 322.42 65.97 M338.91 49.48 C337.68 63.82, 330.27 68.32, 322.42 65.97 M322.42 65.97 C201.27 66.75, 84.51 65.97, 16.49 65.97 M322.42 65.97 C240.59 66.27, 155.81 64.66, 16.49 65.97 M16.49 65.97 C3.05 62.66, -1.96 57.09, 0 49.48 M16.49 65.97 C8.39 61.82, 2.97 60.25, 0 49.48 M0 49.48 C0.36 41.14, -2.46 37.85, 0 16.49 M0 49.48 C-0.26 38.76, 1.43 30.8, 0 16.49 M0 16.49 C-2.75 8.73, 7.39 -3.16, 16.49 0 M0 16.49 C-2.59 2.36, 7.53 4.54, 16.49 0" stroke="#2f9e44" stroke-width="2" fill="none"></path></g><g transform="translate(1425.9712315115612 556.8637295550943) rotate(0 159.57066698074414 17.5)"><text x="159.5706669807434" y="24.668" font-family="Virgil, Segoe UI Emoji" font-size="28px" fill="#2f9e44" text-anchor="middle" style="white-space: pre;" direction="ltr" dominant-baseline="alphabetic">resolve async providers</text></g><g stroke-linecap="round" transform="translate(1417.8430515801228 669.7638207645359) rotate(0 169.45600740949703 32.98571136597093)"><path d="M16.49 0 C97.67 -4.95, 182.19 -2.86, 322.42 0 M16.49 0 C89.13 -2.52, 164.41 -1.8, 322.42 0 M322.42 0 C334.04 1.89, 341.29 3.51, 338.91 16.49 M322.42 0 C337.41 0, 338.45 7.54, 338.91 16.49 M338.91 16.49 C340.37 26.51, 340.73 29.84, 338.91 49.48 M338.91 16.49 C338.14 27.89, 340.27 38.6, 338.91 49.48 M338.91 49.48 C340.02 61.78, 332.3 68.6, 322.42 65.97 M338.91 49.48 C335.61 63.72, 332.25 61.84, 322.42 65.97 M322.42 65.97 C258.27 64.97, 193.78 67.22, 16.49 65.97 M322.42 65.97 C238.38 66.8, 155.58 66.97, 16.49 65.97 M16.49 65.97 C2.58 63.77, -1.44 57.92, 0 49.48 M16.49 65.97 C5.42 67.5, 1.69 61.55, 0 49.48 M0 49.48 C-2.45 40.3, -0.65 38.23, 0 16.49 M0 49.48 C1.16 37.86, 1.44 26.89, 0 16.49 M0 16.49 C-3.11 3.05, 6.16 1.27, 16.49 0 M0 16.49 C4.59 4.44, 3.01 4.38, 16.49 0" stroke="#2f9e44" stroke-width="2" fill="none"></path></g><g transform="translate(1437.0617253422097 685.2495321305069) rotate(0 150.2373336474102 17.5)"><text x="150.23733364741008" y="24.668" font-family="Virgil, Segoe UI Emoji" font-size="28px" fill="#2f9e44" text-anchor="middle" style="white-space: pre;" direction="ltr" dominant-baseline="alphabetic">resolve sync providers</text></g><g transform="translate(1681.8890533923186 19.897899665274963) rotate(0 110.98999999364241 22.5)"><text x="0" y="31.716" font-family="Virgil, Segoe UI Emoji" font-size="36px" fill="#1971c2" text-anchor="start" style="white-space: pre;" direction="ltr" dominant-baseline="alphabetic">DI LifeCycle</text></g><g stroke-linecap="round"><g transform="translate(1581.1882941521471 490.00717949290265) rotate(0 0 21.43447481050407)"><path d="M1.16 -0.56 C1.38 6.71, 1.27 36.66, 1 43.89 M0.31 1.76 C0.48 8.69, 0.88 35.25, 0.58 42.3" stroke="#1e1e1e" stroke-width="2" fill="none"></path></g><g transform="translate(1581.1882941521471 490.00717949290265) rotate(0 0 21.43447481050407)"><path d="M-7.49 23.75 C-2.86 26.75, -2.77 32.24, 1.94 42.21 M-7.5 21.7 C-4.23 27.52, -3.3 33.19, 1.51 43.17" stroke="#1e1e1e" stroke-width="2" fill="none"></path></g><g transform="translate(1581.1882941521471 490.00717949290265) rotate(0 0 21.43447481050407)"><path d="M7.17 23.9 C7.79 27, 3.88 32.44, 1.94 42.21 M7.17 21.84 C6.21 27.74, 2.92 33.36, 1.51 43.17" stroke="#1e1e1e" stroke-width="2" fill="none"></path></g></g><mask></mask><g stroke-linecap="round"><g transform="translate(1583.182198785682 615.6231714056248) rotate(0 -0.4214156872003514 20.805102498928136)"><path d="M0.39 -0.91 C0.34 5.84, -1.07 33.83, -1.18 40.75 M-0.87 1.23 C-1.03 8.08, -2.32 35.14, -2.31 41.83" stroke="#1e1e1e" stroke-width="2" fill="none"></path></g><g transform="translate(1583.182198785682 615.6231714056248) rotate(0 -0.4214156872003514 20.805102498928136)"><path d="M-10.42 21.53 C-8.8 27.47, -7.56 31.01, -0.8 41.55 M-8.61 22.17 C-7.5 27.87, -4.75 33.81, -1.6 41.63" stroke="#1e1e1e" stroke-width="2" fill="none"></path></g><g transform="translate(1583.182198785682 615.6231714056248) rotate(0 -0.4214156872003514 20.805102498928136)"><path d="M3.81 21.91 C2.2 27.81, 0.21 31.26, -0.8 41.55 M5.62 22.54 C2.58 28.17, 1.18 34, -1.6 41.63" stroke="#1e1e1e" stroke-width="2" fill="none"></path></g></g><mask></mask><g stroke-linecap="round" transform="translate(1415.3486745927912 283.71187306366846) rotate(0 169.45600740949703 32.98571136597093)"><path d="M16.49 0 C91.85 -0.83, 167.2 3.31, 322.42 0 M16.49 0 C134.68 -1.91, 252.16 -3.54, 322.42 0 M322.42 0 C332.23 3.94, 338.98 6.46, 338.91 16.49 M322.42 0 C337.03 0.91, 339.74 9.89, 338.91 16.49 M338.91 16.49 C338.24 23.58, 341.7 30.53, 338.91 49.48 M338.91 16.49 C336.93 28.74, 339.56 35.39, 338.91 49.48 M338.91 49.48 C338.82 59.28, 334.06 62.57, 322.42 65.97 M338.91 49.48 C335.6 59.78, 335.25 62.43, 322.42 65.97 M322.42 65.97 C254.25 67.39, 188.69 68.42, 16.49 65.97 M322.42 65.97 C226.11 65.33, 128.6 64.94, 16.49 65.97 M16.49 65.97 C5.55 63.48, 0.36 59.08, 0 49.48 M16.49 65.97 C9.74 68.09, -2.01 64.98, 0 49.48 M0 49.48 C-1.02 40.25, -0.18 29.15, 0 16.49 M0 49.48 C-0.71 39.21, 1.27 26.99, 0 16.49 M0 16.49 C1.08 7.65, 6.17 -1.1, 16.49 0 M0 16.49 C-4.54 9.8, 5.24 2.27, 16.49 0" stroke="#1971c2" stroke-width="2" fill="none"></path></g><g transform="translate(1505.4213507034583 299.1975844296394) rotate(0 79.38333129882812 17.5)"><text x="79.38333129882812" y="24.668" font-family="Virgil, Segoe UI Emoji" font-size="28px" fill="#1971c2" text-anchor="middle" style="white-space: pre;" direction="ltr" dominant-baseline="alphabetic">$beforeInit</text></g><g stroke-linecap="round"><g transform="translate(1583.3565902975242 358.69224386742644) rotate(0 0 23.893513128399718)"><path d="M-0.2 -0.06 C-0.23 7.99, 0.64 40.5, 0.69 48.35 M-1.76 -1.14 C-1.96 6.56, -0.08 38.34, 0.1 46.52" stroke="#1e1e1e" stroke-width="2" fill="none"></path></g><g transform="translate(1583.3565902975242 358.69224386742644) rotate(0 0 23.893513128399718)"><path d="M-9.1 25.57 C-4.68 32.77, -3.52 40.71, -0.7 46.8 M-9.61 24.55 C-6.44 29.66, -5.61 33.91, 0.77 45.78" stroke="#1e1e1e" stroke-width="2" fill="none"></path></g><g transform="translate(1583.3565902975242 358.69224386742644) rotate(0 0 23.893513128399718)"><path d="M7.23 24.89 C5.57 32.31, 0.66 40.51, -0.7 46.8 M6.72 23.87 C6.54 28.96, 4.03 33.35, 0.77 45.78" stroke="#1e1e1e" stroke-width="2" fill="none"></path></g></g><mask></mask><g stroke-linecap="round" transform="translate(1419.6929497070341 796.3363365456862) rotate(0 169.45600740949703 32.98571136597093)"><path d="M16.49 0 C79.31 6.01, 145.01 6.02, 322.42 0 M16.49 0 C122.16 -1.51, 225.56 -0.68, 322.42 0 M322.42 0 C333.26 -0.13, 341.46 6.23, 338.91 16.49 M322.42 0 C330.94 -3.88, 334.58 7.13, 338.91 16.49 M338.91 16.49 C340.88 31.18, 338.3 38.44, 338.91 49.48 M338.91 16.49 C339.19 24.95, 338.8 30.74, 338.91 49.48 M338.91 49.48 C341.23 62.88, 330.61 68.11, 322.42 65.97 M338.91 49.48 C341.27 64.93, 336.11 64.35, 322.42 65.97 M322.42 65.97 C206.76 70.86, 94.44 66.37, 16.49 65.97 M322.42 65.97 C237.1 64.92, 152.19 65.45, 16.49 65.97 M16.49 65.97 C7.52 65.86, -3.84 57.4, 0 49.48 M16.49 65.97 C8.36 62.32, 3.52 55.9, 0 49.48 M0 49.48 C-2.91 39.79, -2.06 33.89, 0 16.49 M0 49.48 C-0.21 39.58, 1.04 31.91, 0 16.49 M0 16.49 C2.43 5.11, 2.86 1.53, 16.49 0 M0 16.49 C1.61 2.21, 8.72 -3.75, 16.49 0" stroke="#1971c2" stroke-width="2" fill="none"></path></g><g transform="translate(1538.465622765947 811.8220479116571) rotate(0 50.68333435058594 17.5)"><text x="50.68333435058594" y="24.668" font-family="Virgil, Segoe UI Emoji" font-size="28px" fill="#1971c2" text-anchor="middle" style="white-space: pre;" direction="ltr" dominant-baseline="alphabetic">$onInit</text></g><g stroke-linecap="round"><g transform="translate(1582.5797230764801 745.3327290361049) rotate(0 1.1891023508178478 21.721375571271892)"><path d="M1.08 -1.13 C1.39 6.45, 1.53 37.06, 1.83 44.45 M0.18 0.9 C0.29 8.24, 0.23 35.6, 0.6 42.85" stroke="#1e1e1e" stroke-width="2" fill="none"></path></g><g transform="translate(1582.5797230764801 745.3327290361049) rotate(0 1.1891023508178478 21.721375571271892)"><path d="M-9.15 21.66 C-3.42 29.41, -3.13 35.58, 1.33 44.43 M-7.52 23.28 C-4.47 30.49, -1.62 38.23, 1.22 43.06" stroke="#1e1e1e" stroke-width="2" fill="none"></path></g><g transform="translate(1582.5797230764801 745.3327290361049) rotate(0 1.1891023508178478 21.721375571271892)"><path d="M5.72 21.35 C7.02 29.32, 2.87 35.59, 1.33 44.43 M7.35 22.97 C4.68 30.21, 1.8 38.06, 1.22 43.06" stroke="#1e1e1e" stroke-width="2" fill="none"></path></g></g><mask></mask><g stroke-linecap="round"><g transform="translate(1767.2642368009474 574.4579078754614) rotate(0 98.47023592310143 0)"><path d="M-2.27 -1.02 C30.28 -1.31, 161.55 -3.3, 195.06 -2.77 M1.7 -4.04 C35.16 -4, 167.73 -0.95, 200.45 -0.65" stroke="#1e1e1e" stroke-width="2" fill="none"></path></g><g transform="translate(1767.2642368009474 574.4579078754614) rotate(0 98.47023592310143 0)"><path d="M176.09 6.16 C181.79 6.65, 192.23 2.19, 200.18 -1.8 M177.75 7.2 C182.45 6.06, 186.42 3.67, 200.57 -0.76" stroke="#1e1e1e" stroke-width="2" fill="none"></path></g><g transform="translate(1767.2642368009474 574.4579078754614) rotate(0 98.47023592310143 0)"><path d="M176.37 -10.93 C181.93 -5.44, 192.28 -4.89, 200.18 -1.8 M178.04 -9.9 C182.62 -7.53, 186.53 -6.41, 200.57 -0.76" stroke="#1e1e1e" stroke-width="2" fill="none"></path></g></g><mask></mask><g transform="translate(1790.4337040769715 533.9113401424202) rotate(0 70.07866678237951 10)"><text x="0" y="14.096" font-family="Virgil, Segoe UI Emoji" font-size="16px" fill="#1e1e1e" text-anchor="start" style="white-space: pre;" direction="ltr" dominant-baseline="alphabetic">forEach providers</text></g><g stroke-linecap="round"><g transform="translate(1765.9189441411072 700.1766423809913) rotate(0 99.1942817754807 -0.7991329274427699)"><path d="M1.95 2.44 C35.19 1.97, 167.36 -1.26, 199.94 -1.55 M-0.44 1.3 C32.53 1.19, 165.95 2.92, 198.54 2.11" stroke="#1e1e1e" stroke-width="2" fill="none"></path></g><g transform="translate(1765.9189441411072 700.1766423809913) rotate(0 99.1942817754807 -0.7991329274427699)"><path d="M176.82 11.84 C182.5 7.15, 191.54 3.16, 196.88 0.99 M175.37 10.67 C182.49 7.71, 187.45 5.46, 199.1 1.52" stroke="#1e1e1e" stroke-width="2" fill="none"></path></g><g transform="translate(1765.9189441411072 700.1766423809913) rotate(0 99.1942817754807 -0.7991329274427699)"><path d="M176.77 -5.26 C182.54 -4.54, 191.6 -3.12, 196.88 0.99 M175.31 -6.43 C182.3 -4.77, 187.27 -2.4, 199.1 1.52" stroke="#1e1e1e" stroke-width="2" fill="none"></path></g></g><mask></mask><g stroke-linecap="round" transform="translate(1975.760164331572 540.0241048047374) rotate(0 169.45600740949703 32.98571136597093)"><path d="M16.49 0 C105.36 1.58, 200.54 -0.41, 322.42 0 M16.49 0 C128.34 0.8, 238.11 1.5, 322.42 0 M322.42 0 C334.34 -2.87, 339.55 9.15, 338.91 16.49 M322.42 0 C337.25 -3.22, 339.01 3.58, 338.91 16.49 M338.91 16.49 C341.89 28.31, 340.74 29.67, 338.91 49.48 M338.91 16.49 C340.94 27.89, 339.2 38.63, 338.91 49.48 M338.91 49.48 C339.17 56.71, 335.12 63.15, 322.42 65.97 M338.91 49.48 C339.36 63.96, 332.07 64.75, 322.42 65.97 M322.42 65.97 C230.72 66.86, 136.07 68.33, 16.49 65.97 M322.42 65.97 C215.06 61.55, 109.2 60.45, 16.49 65.97 M16.49 65.97 C9.31 63.96, -0.95 60.58, 0 49.48 M16.49 65.97 C0.99 67.55, -1.67 64.96, 0 49.48 M0 49.48 C-2.85 43.34, 2.26 30.84, 0 16.49 M0 49.48 C-0.83 40.98, -2.39 28.78, 0 16.49 M0 16.49 C-3.94 7.96, 1.57 -2.89, 16.49 0 M0 16.49 C-1.57 2.79, 7.94 -0.55, 16.49 0" stroke="#1e1e1e" stroke-width="2" fill="none"></path></g><g transform="translate(2021.1628384824398 555.5098161707083) rotate(0 124.05333325862921 17.5)"><text x="124.05333325862884" y="24.668" font-family="Virgil, Segoe UI Emoji" font-size="28px" fill="#1e1e1e" text-anchor="middle" style="white-space: pre;" direction="ltr" dominant-baseline="alphabetic">injector().resolve()</text></g><g stroke-linecap="round" transform="translate(1975.760164331572 668.9355144554756) rotate(0 169.45600740949703 32.98571136597093)"><path d="M16.49 0 C115.19 -0.26, 206.78 -2.42, 322.42 0 M16.49 0 C112.08 -1.18, 209.18 -3.03, 322.42 0 M322.42 0 C331.75 -2.44, 335.81 6.52, 338.91 16.49 M322.42 0 C330.54 2.3, 336.26 6.53, 338.91 16.49 M338.91 16.49 C342.39 32.53, 337.15 44.4, 338.91 49.48 M338.91 16.49 C337.48 28.8, 339.46 36.84, 338.91 49.48 M338.91 49.48 C338.26 64.11, 333.4 65.43, 322.42 65.97 M338.91 49.48 C335.35 58.31, 332.55 64.22, 322.42 65.97 M322.42 65.97 C252.62 65.5, 179.53 61.31, 16.49 65.97 M322.42 65.97 C241.32 68.66, 163.11 66.84, 16.49 65.97 M16.49 65.97 C2.21 66.24, 2.3 56.64, 0 49.48 M16.49 65.97 C3.32 67.38, -1.72 57.17, 0 49.48 M0 49.48 C0.05 40.94, 0.96 29.76, 0 16.49 M0 49.48 C1.24 39.68, 1.8 30.92, 0 16.49 M0 16.49 C1.64 2.17, 6.62 3.88, 16.49 0 M0 16.49 C-1.91 9.71, 8.37 -3.52, 16.49 0" stroke="#1e1e1e" stroke-width="2" fill="none"></path></g><g transform="translate(2021.1628384824398 684.4212258214466) rotate(0 124.05333325862921 17.5)"><text x="124.05333325862884" y="24.668" font-family="Virgil, Segoe UI Emoji" font-size="28px" fill="#1e1e1e" text-anchor="middle" style="white-space: pre;" direction="ltr" dominant-baseline="alphabetic">injector().resolve()</text></g><g transform="translate(1785.550411936245 665.8243272080726) rotate(0 70.07866678237951 10)"><text x="0" y="14.096" font-family="Virgil, Segoe UI Emoji" font-size="16px" fill="#1e1e1e" text-anchor="start" style="white-space: pre;" direction="ltr" dominant-baseline="alphabetic">forEach providers</text></g><g stroke-linecap="round" transform="translate(1323.2971750957222 1131.903649497819) rotate(0 515.599187858601 652.5768740901194)"><path d="M32 0 C419.35 1.87, 805.63 1.04, 999.2 0 M999.2 0 C1021.11 0.31, 1029.72 9.32, 1031.2 32 M1031.2 32 C1028.63 348.1, 1029.28 664.92, 1031.2 1273.15 M1031.2 1273.15 C1031.29 1293.26, 1020.96 1304.38, 999.2 1305.15 M999.2 1305.15 C619.23 1305.32, 239.23 1304.24, 32 1305.15 M32 1305.15 C12.52 1305.84, 0.49 1292.53, 0 1273.15 M0 1273.15 C3.02 902.91, 2.52 532.07, 0 32 M0 32 C-0.63 10.99, 9.84 1.33, 32 0" stroke="#1e1e1e" stroke-width="1.5" fill="none" stroke-dasharray="8 9"></path></g><g transform="translate(1341.6768052855841 1076.274691961802) rotate(0 124.05333325862921 17.5)"><text x="0" y="24.668" font-family="Virgil, Segoe UI Emoji" font-size="28px" fill="#1e1e1e" text-anchor="start" style="white-space: pre;" direction="ltr" dominant-baseline="alphabetic">injector().resolve()</text></g><g stroke-linecap="round"><g transform="translate(2637.6426390395936 348.7785547024796) rotate(0 34.12005553333074 -1.176553639080339)"><path d="M-1.11 -0.97 C11.02 -1.01, 58.09 -1.89, 70.06 -2.45 M3.49 -3.96 C15.65 -3.33, 57.68 0.85, 68.81 1.13" stroke="#6741d9" stroke-width="4" fill="none"></path></g></g><mask></mask><g transform="translate(2745.8855738349885 324.80680375535485) rotate(0 376.51666259765625 35)"><text x="0" y="24.668" font-family="Virgil, Segoe UI Emoji" font-size="28px" fill="#6741d9" text-anchor="start" style="white-space: pre;" direction="ltr" dominant-baseline="alphabetic">Hook event emmitted only for the current provider</text><text x="0" y="59.668" font-family="Virgil, Segoe UI Emoji" font-size="28px" fill="#6741d9" text-anchor="start" style="white-space: pre;" direction="ltr" dominant-baseline="alphabetic">or any function that use the token as selector event</text></g><g stroke-linecap="round"><g transform="translate(2638.037732231529 276.5977654702965) rotate(0 34.12005553333074 -1.176553639080339)"><path d="M2.65 -0.91 C13.4 -0.6, 55.55 0.19, 66.43 0.02 M0.64 -3.87 C12.12 -4.15, 60.96 -4.59, 71.85 -3.71" stroke="#1971c2" stroke-width="4" fill="none"></path></g></g><mask></mask><g transform="translate(2746.2806670269238 252.62601452317358) rotate(0 269.5893336296085 17.5)"><text x="0" y="24.668" font-family="Virgil, Segoe UI Emoji" font-size="28px" fill="#1971c2" text-anchor="start" style="white-space: pre;" direction="ltr" dominant-baseline="alphabetic">Hook event emmitted to all subscribers</text></g><g stroke-linecap="round"><g transform="translate(2641.5295179673776 463.8180986703028) rotate(0 34.12005553333074 -1.176553639080339)"><path d="M-2.79 1.37 C8.74 0.51, 57.37 -1.73, 69.1 -2.45 M0.9 -0.35 C12.14 0.45, 56.57 1.09, 67.33 1.13" stroke="#2f9e44" stroke-width="4" fill="none"></path></g></g><mask></mask><g transform="translate(2749.7724527627724 439.8463477231762) rotate(0 39.333333635329836 17.5)"><text x="0" y="24.668" font-family="Virgil, Segoe UI Emoji" font-size="28px" fill="#2f9e44" text-anchor="start" style="white-space: pre;" direction="ltr" dominant-baseline="alphabetic">Steps</text></g><g stroke-linecap="round"><g transform="translate(2639.70570528958 637.9364686852641) rotate(0 34.12005553333074 -1.176553639080339)"><path d="M2.19 -2.78 C13.67 -2.92, 56.49 -1.88, 67.8 -1.69" stroke="#1e1e1e" stroke-width="4.5" fill="none" stroke-dasharray="8 12"></path></g></g><mask></mask><g transform="translate(2747.948640084982 613.9647177381412) rotate(0 48.47866697311474 17.5)"><text x="0" y="24.668" font-family="Virgil, Segoe UI Emoji" font-size="28px" fill="#1e1e1e" text-anchor="start" style="white-space: pre;" direction="ltr" dominant-baseline="alphabetic">Groups</text></g><g stroke-linecap="round" transform="translate(1449.9444179637685 1211.8490251470776) rotate(0 120.66259393711334 115)"><path d="M151.25 29 C165.64 47.82, 178.63 62.42, 211.08 87 M151.25 29 C166.45 43.46, 179.85 57.59, 211.08 87 M211.08 87 C245.32 115.74, 242.69 119.11, 211.08 145 M211.08 87 C240.77 112.01, 243.96 119.55, 211.08 145 M211.08 145 C195.75 155.99, 180.71 169.27, 151.25 201 M211.08 145 C197.7 155.75, 184.57 167.76, 151.25 201 M151.25 201 C124.72 227.05, 120.14 227.87, 90.75 201 M151.25 201 C125.57 230.95, 123.76 227.24, 90.75 201 M90.75 201 C76.48 184, 54.54 166.34, 30.25 145 M90.75 201 C69.18 180.15, 47.94 162.08, 30.25 145 M30.25 145 C0.32 118.28, -2.89 118.71, 30.25 87 M30.25 145 C1.8 116.08, -1.62 111.68, 30.25 87 M30.25 87 C53.7 65.58, 71.71 46.26, 90.75 29 M30.25 87 C47.71 70.58, 63.81 56.74, 90.75 29 M90.75 29 C118.04 3.76, 121.91 -2.97, 151.25 29 M90.75 29 C116.9 2.96, 122.84 -2.13, 151.25 29" stroke="#2f9e44" stroke-width="4" fill="none"></path></g><g transform="translate(1524.207048271539 1291.8490251470776) rotate(0 46.56866666078531 35)"><text x="46.568666660785674" y="24.668" font-family="Virgil, Segoe UI Emoji" font-size="28px" fill="#2f9e44" text-anchor="middle" style="white-space: pre;" direction="ltr" dominant-baseline="alphabetic">is</text><text x="46.568666660785674" y="59.668" font-family="Virgil, Segoe UI Emoji" font-size="28px" fill="#2f9e44" text-anchor="middle" style="white-space: pre;" direction="ltr" dominant-baseline="alphabetic">cached</text></g><g stroke-linecap="round"><g transform="translate(1703.1681254492032 1328.2392273177593) rotate(0 180.2442048130706 1.8189894035458565e-12)"><path d="M-1.57 -0.83 C58.89 -0.4, 299.55 0.43, 360.16 0.99 M2.78 -3.74 C63.06 -4.04, 298.01 -3.83, 357.74 -3.49" stroke="#1e1e1e" stroke-width="1" fill="none"></path></g><g transform="translate(1703.1681254492032 1328.2392273177593) rotate(0 180.2442048130706 1.8189894035458565e-12)"><path d="M333.64 4.76 C339.87 4.51, 345.84 3.41, 359.39 -2.82 M334.94 5.35 C342.41 2.63, 349.38 0.35, 357.73 -3.49" stroke="#1e1e1e" stroke-width="1" fill="none"></path></g><g transform="translate(1703.1681254492032 1328.2392273177593) rotate(0 180.2442048130706 1.8189894035458565e-12)"><path d="M333.68 -12.34 C339.81 -9.04, 345.78 -6.58, 359.39 -2.82 M334.99 -11.75 C342.48 -8.88, 349.43 -5.56, 357.73 -3.49" stroke="#1e1e1e" stroke-width="1" fill="none"></path></g></g><mask></mask><g transform="translate(1867.5459944123068 1267.6161095182306) rotate(0 23.11866696675679 17.5)"><text x="0" y="24.668" font-family="Virgil, Segoe UI Emoji" font-size="28px" fill="#1e1e1e" text-anchor="start" style="white-space: pre;" direction="ltr" dominant-baseline="alphabetic">Yes</text></g><g stroke-linecap="round" transform="translate(2072.7406966351846 1253.5509138299221) rotate(0 95.91063385645248 76.79849834037032)"><path d="M33.58 17.03 C42.28 9.59, 57.31 4.37, 70.24 1.72 C83.17 -0.94, 98.02 -0.84, 111.17 1.09 C124.32 3.02, 138.26 7.78, 149.15 13.29 C160.05 18.79, 169.8 25.82, 176.57 34.12 C183.33 42.42, 187.98 52.81, 189.76 63.09 C191.54 73.36, 190.63 85.21, 187.25 95.75 C183.87 106.28, 177.34 118.22, 169.47 126.29 C161.6 134.36, 151.52 139.77, 140.02 144.16 C128.52 148.55, 113.35 151.81, 100.47 152.63 C87.58 153.45, 74.92 152.69, 62.71 149.06 C50.49 145.44, 36.47 138.54, 27.17 130.88 C17.87 123.22, 11.12 112.33, 6.93 103.11 C2.73 93.89, 1.81 85.79, 1.99 75.54 C2.17 65.3, 1.15 51.79, 8 41.64 C14.86 31.49, 35.74 20.06, 43.13 14.62 C50.51 9.18, 51.7 8.1, 52.32 9.01 M125.71 4.05 C137.53 5.92, 148.77 14.33, 158.27 20.97 C167.76 27.61, 176.72 34.01, 182.66 43.9 C188.61 53.79, 194.25 69.49, 193.91 80.32 C193.58 91.16, 186.15 100.06, 180.66 108.9 C175.18 117.74, 170.32 126.61, 160.98 133.37 C151.64 140.13, 137.14 146.58, 124.62 149.45 C112.09 152.32, 98.45 151.77, 85.84 150.59 C73.22 149.41, 60.14 146.88, 48.91 142.39 C37.68 137.9, 26.46 131.71, 18.45 123.66 C10.44 115.61, 3.44 104.95, 0.84 94.11 C-1.76 83.28, -0.63 69.6, 2.85 58.67 C6.32 47.74, 13.73 37.11, 21.69 28.55 C29.66 19.99, 39.59 12.41, 50.61 7.3 C61.64 2.19, 75.43 -1.07, 87.84 -2.12 C100.25 -3.16, 118.36 -0.69, 125.06 1.02 C131.77 2.73, 128.61 6.79, 128.08 8.15" stroke="#1e1e1e" stroke-width="4" fill="none"></path></g><g transform="translate(2111.9336042279538 1295.544673208873) rotate(0 56.89866667588467 35)"><text x="56.898666675885515" y="24.668" font-family="Virgil, Segoe UI Emoji" font-size="28px" fill="#1e1e1e" text-anchor="middle" style="white-space: pre;" direction="ltr" dominant-baseline="alphabetic">Return</text><text x="56.898666675885515" y="59.668" font-family="Virgil, Segoe UI Emoji" font-size="28px" fill="#1e1e1e" text-anchor="middle" style="white-space: pre;" direction="ltr" dominant-baseline="alphabetic">instance</text></g><g transform="translate(1621.671135620425 1484.3040940709252) rotate(0 17.486667156219482 17.5)"><text x="0" y="24.668" font-family="Virgil, Segoe UI Emoji" font-size="28px" fill="#1e1e1e" text-anchor="start" style="white-space: pre;" direction="ltr" dominant-baseline="alphabetic">No</text></g><g stroke-linecap="round" transform="translate(1416.6543549084818 1764.4191286883834) rotate(0 169.45600740949703 32.98571136597093)"><path d="M16.49 0 C102.74 -4.76, 192.74 -1.77, 322.42 0 M16.49 0 C103.28 2.93, 189.19 3.24, 322.42 0 M322.42 0 C334.96 -2.04, 341.75 6.87, 338.91 16.49 M322.42 0 C336.25 -3.26, 336.92 2.36, 338.91 16.49 M338.91 16.49 C339.01 31.75, 337.14 41.09, 338.91 49.48 M338.91 16.49 C339.05 29.81, 337.67 42.04, 338.91 49.48 M338.91 49.48 C336.11 58.95, 333.14 68.6, 322.42 65.97 M338.91 49.48 C336.54 60.47, 331.13 66.24, 322.42 65.97 M322.42 65.97 C218.04 65.18, 116.71 66.1, 16.49 65.97 M322.42 65.97 C252.31 67.54, 180.14 69.39, 16.49 65.97 M16.49 65.97 C3.87 65.68, -3.6 62.3, 0 49.48 M16.49 65.97 C4.79 64.52, -0.57 58.4, 0 49.48 M0 49.48 C0.38 35.08, -2.1 23.77, 0 16.49 M0 49.48 C-1.82 42.83, 0.27 32.1, 0 16.49 M0 16.49 C3.1 7.2, 5.17 -0.24, 16.49 0 M0 16.49 C-4.23 9.02, 6.43 -2.49, 16.49 0" stroke="#1e1e1e" stroke-width="2" fill="none"></path></g><g transform="translate(1441.1403623926817 1779.9048400543543) rotate(0 144.96999992529527 17.5)"><text x="144.9699999252955" y="24.668" font-family="Virgil, Segoe UI Emoji" font-size="28px" fill="#1e1e1e" text-anchor="middle" style="white-space: pre;" direction="ltr" dominant-baseline="alphabetic">injector.invokeToken()</text></g><g stroke-linecap="round"><g transform="translate(1776.0876340581453 2315.8025474061687) rotate(0 138.3414661553743 0.5513058810902294)"><path d="M0.32 2.59 C46.85 2.66, 231.14 2.86, 277.45 2.32 M-2.95 1.53 C43.43 0.58, 228.94 -2.03, 275.63 -2.03" stroke="#1e1e1e" stroke-width="1" fill="none"></path></g><g transform="translate(1776.0876340581453 2315.8025474061687) rotate(0 138.3414661553743 0.5513058810902294)"><path d="M254.06 7.26 C258.61 5.67, 262.09 3.83, 277.42 -1.67 M251.5 6.51 C261.91 2.23, 269.57 -0.03, 275.98 -2.42" stroke="#1e1e1e" stroke-width="1" fill="none"></path></g><g transform="translate(1776.0876340581453 2315.8025474061687) rotate(0 138.3414661553743 0.5513058810902294)"><path d="M253.92 -9.84 C258.62 -7.36, 262.13 -5.12, 277.42 -1.67 M251.36 -10.59 C261.83 -8.27, 269.55 -3.93, 275.98 -2.42" stroke="#1e1e1e" stroke-width="1" fill="none"></path></g></g><mask></mask><g stroke-linecap="round" transform="translate(2078.9321448815135 2234.4704908647) rotate(0 95.91063385645248 76.79849834037032)"><path d="M124.98 2.03 C137.31 3.89, 149.66 10.41, 159.53 17.77 C169.41 25.13, 178.9 36.78, 184.23 46.18 C189.57 55.58, 191.87 64.19, 191.53 74.18 C191.19 84.16, 186.97 96.41, 182.2 106.1 C177.42 115.79, 172.38 125.35, 162.88 132.32 C153.38 139.28, 137.95 144.43, 125.2 147.86 C112.46 151.29, 99.34 153.73, 86.4 152.9 C73.46 152.08, 59 147.65, 47.58 142.9 C36.15 138.16, 25.7 132.82, 17.87 124.44 C10.04 116.06, 3.3 103.01, 0.6 92.61 C-2.09 82.22, -0.95 72.2, 1.7 62.09 C4.35 51.98, 8.94 40.22, 16.51 31.94 C24.07 23.65, 35.5 17.43, 47.07 12.36 C58.64 7.29, 68.67 0.92, 85.92 1.5 C103.18 2.07, 136.17 10.47, 150.61 15.81 C165.04 21.16, 172.91 32.46, 172.52 33.57 M18.26 29.4 C24.94 21.59, 38.29 16.43, 49.86 11.37 C61.43 6.32, 74.84 -0.07, 87.68 -0.93 C100.52 -1.79, 114.82 2.69, 126.91 6.2 C138.99 9.72, 150.11 13.51, 160.2 20.16 C170.28 26.8, 182.08 35.7, 187.4 46.05 C192.72 56.4, 193.21 71.41, 192.12 82.25 C191.04 93.09, 186.42 102.33, 180.88 111.1 C175.33 119.87, 168.98 128.61, 158.85 134.86 C148.72 141.11, 132.85 145.76, 120.12 148.6 C107.38 151.44, 94.67 153.45, 82.45 151.89 C70.23 150.33, 58.27 145.03, 46.79 139.23 C35.32 133.43, 21.02 125.71, 13.58 117.1 C6.15 108.49, 4.19 97.31, 2.19 87.55 C0.18 77.8, -1.47 68.64, 1.56 58.56 C4.59 48.48, 17.07 32.1, 20.37 27.07 C23.66 22.04, 20.28 27.18, 21.33 28.38" stroke="#1e1e1e" stroke-width="4" fill="none"></path></g><g transform="translate(2118.1250524742827 2276.464250243651) rotate(0 56.89866667588467 35)"><text x="56.898666675885515" y="24.668" font-family="Virgil, Segoe UI Emoji" font-size="28px" fill="#1e1e1e" text-anchor="middle" style="white-space: pre;" direction="ltr" dominant-baseline="alphabetic">Return</text><text x="56.898666675885515" y="59.668" font-family="Virgil, Segoe UI Emoji" font-size="28px" fill="#1e1e1e" text-anchor="middle" style="white-space: pre;" direction="ltr" dominant-baseline="alphabetic">instance</text></g><g stroke-linecap="round"><g transform="translate(1572.6866095623845 1449.9227826235638) rotate(0 1.1605248577616294 63.53065063507893)"><path d="M2.07 -0.6 C2.84 20.16, 2.79 104.8, 3.12 125.62 M-0.25 -3.39 C0.36 17.62, 0.75 106.92, 1.32 128.46" stroke="#1e1e1e" stroke-width="1" fill="none"></path></g><g transform="translate(1572.6866095623845 1449.9227826235638) rotate(0 1.1605248577616294 63.53065063507893)"><path d="M-7.98 105.67 C-6.32 112, -5.09 116.88, 0.3 126.6 M-7.55 105.75 C-5.43 114.04, -1.45 121.42, 1.86 128.19" stroke="#1e1e1e" stroke-width="1" fill="none"></path></g><g transform="translate(1572.6866095623845 1449.9227826235638) rotate(0 1.1605248577616294 63.53065063507893)"><path d="M9.12 105.43 C6.58 111.94, 3.62 116.88, 0.3 126.6 M9.54 105.51 C5.69 113.86, 3.68 121.33, 1.86 128.19" stroke="#1e1e1e" stroke-width="1" fill="none"></path></g></g><mask></mask><g stroke-linecap="round" transform="translate(2602.6309451605666 1363.5989891773079) rotate(0 515.599187858601 530.307764381052)"><path d="M32 0 C340.35 2.05, 649.29 2.23, 999.2 0 M999.2 0 C1019.1 -0.56, 1032.68 12.45, 1031.2 32 M1031.2 32 C1032.4 408.17, 1032.16 782.61, 1031.2 1028.62 M1031.2 1028.62 C1030.91 1050.73, 1020.73 1062.02, 999.2 1060.62 M999.2 1060.62 C653.35 1058.9, 309.07 1058.86, 32 1060.62 M32 1060.62 C9.12 1059.29, 0.85 1048.48, 0 1028.62 M0 1028.62 C-0.78 665.49, -0.72 302.05, 0 32 M0 32 C-1.07 9.65, 10.31 0.78, 32 0" stroke="#1e1e1e" stroke-width="1.5" fill="none" stroke-dasharray="8 9"></path></g><g transform="translate(2634.2799686728285 1314.066349815641) rotate(0 155.51999992529636 17.5)"><text x="0" y="24.668" font-family="Virgil, Segoe UI Emoji" font-size="28px" fill="#1e1e1e" text-anchor="start" style="white-space: pre;" direction="ltr" dominant-baseline="alphabetic">injector().invokeToken()</text></g><g stroke-linecap="round" transform="translate(2662.326034797068 1428.6262145900582) rotate(0 196.67289448520023 34.41817910679674)"><path d="M17.21 0 C98.25 0.98, 184.66 1.26, 376.14 0 M17.21 0 C99.94 -3.22, 183.4 -2.19, 376.14 0 M376.14 0 C390.27 1.04, 395.37 6.71, 393.35 17.21 M376.14 0 C383.2 -2.42, 394.69 4.37, 393.35 17.21 M393.35 17.21 C391.54 26.64, 392.77 43.07, 393.35 51.63 M393.35 17.21 C391.82 24.34, 392.21 30.75, 393.35 51.63 M393.35 51.63 C394.29 64.33, 390.91 65.67, 376.14 68.84 M393.35 51.63 C393.95 59.98, 389.36 67.46, 376.14 68.84 M376.14 68.84 C301.88 67.2, 228.86 63.91, 17.21 68.84 M376.14 68.84 C293.11 73.24, 211.66 74.2, 17.21 68.84 M17.21 68.84 C6.73 70.63, 2.18 63.07, 0 51.63 M17.21 68.84 C5.45 66.64, -3.35 60.77, 0 51.63 M0 51.63 C-0.73 38.5, 0.1 22.66, 0 17.21 M0 51.63 C0.42 39.12, -1.82 26.02, 0 17.21 M0 17.21 C0.68 4.42, 7.56 2.58, 17.21 0 M0 17.21 C0.24 2.17, 4.94 1.6, 17.21 0" stroke="#2f9e44" stroke-width="2" fill="none"></path></g><g transform="translate(2710.1282623015213 1445.544393696855) rotate(0 148.8706669807434 17.5)"><text x="148.8706669807434" y="24.668" font-family="Virgil, Segoe UI Emoji" font-size="28px" fill="#2f9e44" text-anchor="middle" style="white-space: pre;" direction="ltr" dominant-baseline="alphabetic">resolve invoke options</text></g><g stroke-linecap="round"><g transform="translate(2854.354942397469 1513.1807646257912) rotate(0 -0.6876806966865843 36.795168235850724)"><path d="M0.95 0.48 C0.33 13.37, -3.95 63.11, -4.07 75.42 M-1.98 -1.73 C-1.74 10.54, 0.65 58.14, 0.87 71.41" stroke="#1e1e1e" stroke-width="1" fill="none"></path></g><g transform="translate(2854.354942397469 1513.1807646257912) rotate(0 -0.6876806966865843 36.795168235850724)"><path d="M-8.14 46.31 C-4.64 56.05, -2.72 62.4, -0.67 72.34 M-8.33 48.19 C-5.43 53.15, -3.68 59.91, -0.11 70.76" stroke="#1e1e1e" stroke-width="1" fill="none"></path></g><g transform="translate(2854.354942397469 1513.1807646257912) rotate(0 -0.6876806966865843 36.795168235850724)"><path d="M8.95 45.71 C7.53 55.68, 4.53 62.2, -0.67 72.34 M8.76 47.6 C7.69 52.65, 5.46 59.55, -0.11 70.76" stroke="#1e1e1e" stroke-width="1" fill="none"></path></g></g><mask></mask><g stroke-linecap="round" transform="translate(2657.905213224487 1889.509014555273) rotate(0 196.67289448520023 41.43246774082672)"><path d="M20.72 0 C127.33 3.63, 233.64 1.61, 372.63 0 M20.72 0 C124.77 -1.27, 231.51 0.17, 372.63 0 M372.63 0 C390.18 -3.6, 392.09 4.87, 393.35 20.72 M372.63 0 C387.55 0.27, 394.78 10.06, 393.35 20.72 M393.35 20.72 C391.82 28.97, 394.68 42.98, 393.35 62.15 M393.35 20.72 C392.53 37.25, 392.8 50.17, 393.35 62.15 M393.35 62.15 C392.48 72.07, 386.12 83.46, 372.63 82.86 M393.35 62.15 C389.83 79.01, 387.32 81.61, 372.63 82.86 M372.63 82.86 C298.91 80.39, 226.5 78.79, 20.72 82.86 M372.63 82.86 C284.67 79.67, 195.11 79.95, 20.72 82.86 M20.72 82.86 C8.62 85.47, 0.27 73.05, 0 62.15 M20.72 82.86 C4.47 82.73, -3.48 77.17, 0 62.15 M0 62.15 C-1.45 51.36, 0.34 42.92, 0 20.72 M0 62.15 C-1.33 50.12, -2.23 40.61, 0 20.72 M0 20.72 C2.08 4.98, 4.46 -1.25, 20.72 0 M0 20.72 C1.28 2.83, 8.52 -1.04, 20.72 0" stroke="#2f9e44" stroke-width="2" fill="none"></path></g><g transform="translate(2715.1574407289445 1913.441482296099) rotate(0 139.42066698074268 17.5)"><text x="139.42066698074342" y="24.668" font-family="Virgil, Segoe UI Emoji" font-size="28px" fill="#2f9e44" text-anchor="middle" style="white-space: pre;" direction="ltr" dominant-baseline="alphabetic">resolve dependencies</text></g><g stroke-linecap="round" transform="translate(2662.5041917803974 1604.7711942512633) rotate(0 193.80795900354678 32.98571136597093)"><path d="M16.49 0 C103.56 -2.65, 186.24 -1.09, 371.12 0 M16.49 0 C159.17 3, 299.06 1.57, 371.12 0 M371.12 0 C385.37 -0.72, 384.85 9.1, 387.62 16.49 M371.12 0 C379.26 -0.12, 391.77 8.4, 387.62 16.49 M387.62 16.49 C384.94 29.92, 391 37.88, 387.62 49.48 M387.62 16.49 C387.77 25.12, 388.95 28.91, 387.62 49.48 M387.62 49.48 C388.82 62.57, 384.77 66.9, 371.12 65.97 M387.62 49.48 C389.44 58.45, 381.99 69.44, 371.12 65.97 M371.12 65.97 C279.73 62.74, 190.59 66.51, 16.49 65.97 M371.12 65.97 C233.63 65.95, 95.62 65.15, 16.49 65.97 M16.49 65.97 C8.07 62.42, 1 61.23, 0 49.48 M16.49 65.97 C9.79 64.55, 3.86 64.69, 0 49.48 M0 49.48 C-3.08 41.51, 1.36 26.39, 0 16.49 M0 49.48 C-2.52 41.1, -2.58 33.45, 0 16.49 M0 16.49 C0.69 3.08, 7.49 3.4, 16.49 0 M0 16.49 C2.47 6.31, 6.46 -3.95, 16.49 0" stroke="#6741d9" stroke-width="2" fill="none"></path></g><g transform="translate(2757.5308174010206 1620.2569056172342) rotate(0 98.78133338292355 17.5)"><text x="98.78133338292439" y="24.668" font-family="Virgil, Segoe UI Emoji" font-size="28px" fill="#6741d9" text-anchor="middle" style="white-space: pre;" direction="ltr" dominant-baseline="alphabetic">$beforeInvoke</text></g><g stroke-linecap="round" transform="translate(3273.742967800081 1899.2775603896334) rotate(0 169.45600740949703 32.98571136597093)"><path d="M16.49 0 C119.61 -3.95, 219.32 -4.62, 322.42 0 M16.49 0 C103.46 -0.17, 190.37 0.7, 322.42 0 M322.42 0 C331.8 -1.24, 336.76 5.62, 338.91 16.49 M322.42 0 C328.99 3.41, 343.49 1.41, 338.91 16.49 M338.91 16.49 C338.08 20.86, 337.35 28.16, 338.91 49.48 M338.91 16.49 C340.73 28.75, 339.11 36.6, 338.91 49.48 M338.91 49.48 C337.14 61.08, 329.62 66.67, 322.42 65.97 M338.91 49.48 C342.11 62.25, 330.35 68.89, 322.42 65.97 M322.42 65.97 C255.05 64.45, 184.04 63.3, 16.49 65.97 M322.42 65.97 C202.78 66.69, 84.89 67.96, 16.49 65.97 M16.49 65.97 C4.74 62.38, -0.06 58.43, 0 49.48 M16.49 65.97 C1.72 61.49, 2.37 58.29, 0 49.48 M0 49.48 C-0.67 38.07, -3.34 29.63, 0 16.49 M0 49.48 C-0.87 35.03, 0.69 23.86, 0 16.49 M0 16.49 C-2.85 9.34, 6.01 -2.76, 16.49 0 M0 16.49 C-3.09 2.69, 2.62 -2.87, 16.49 0" stroke="#1e1e1e" stroke-width="2" fill="none"></path></g><g transform="translate(3319.1456419509486 1914.7632717556044) rotate(0 124.05333325862921 17.5)"><text x="124.05333325862884" y="24.668" font-family="Virgil, Segoe UI Emoji" font-size="28px" fill="#1e1e1e" text-anchor="middle" style="white-space: pre;" direction="ltr" dominant-baseline="alphabetic">injector().resolve()</text></g><g transform="translate(3090.0718840010377 1891.807260744692) rotate(0 70.07866678237951 10)"><text x="0" y="14.096" font-family="Virgil, Segoe UI Emoji" font-size="16px" fill="#1e1e1e" text-anchor="start" style="white-space: pre;" direction="ltr" dominant-baseline="alphabetic">forEach providers</text></g><g stroke-linecap="round"><g transform="translate(3064.929197183057 1933.3298344798222) rotate(0 98.43442290264647 0.39382647273760085)"><path d="M1.12 1.31 C33.88 2.17, 164.52 2.83, 196.71 2.44 M-1.72 -0.44 C30.64 -0.14, 160.82 -1.93, 194.38 -1.68" stroke="#1e1e1e" stroke-width="1" fill="none"></path></g><g transform="translate(3064.929197183057 1933.3298344798222) rotate(0 98.43442290264647 0.39382647273760085)"><path d="M171.87 6.86 C179.37 2.37, 184.06 2.73, 195.34 -0.69 M171.05 6.3 C178.21 3.33, 186.39 0.51, 194.56 -1.22" stroke="#1e1e1e" stroke-width="1" fill="none"></path></g><g transform="translate(3064.929197183057 1933.3298344798222) rotate(0 98.43442290264647 0.39382647273760085)"><path d="M171.79 -10.24 C179.16 -9.5, 183.86 -3.9, 195.34 -0.69 M170.98 -10.8 C178.15 -8.32, 186.36 -5.67, 194.56 -1.22" stroke="#1e1e1e" stroke-width="1" fill="none"></path></g></g><mask></mask><g stroke-linecap="round" transform="translate(2759.8607268871565 2220.5314880247297) rotate(0 95.91063385645248 76.79849834037032)"><path d="M67.92 4.48 C79.16 0.66, 92.15 -0.72, 104.68 0.48 C117.21 1.67, 131.78 6.4, 143.09 11.66 C154.41 16.92, 164.62 24.11, 172.55 32.03 C180.49 39.96, 187.8 49.15, 190.72 59.2 C193.64 69.24, 192.84 82.13, 190.08 92.31 C187.31 102.49, 181.97 111.66, 174.13 120.27 C166.3 128.88, 154.6 138.6, 143.07 143.98 C131.54 149.35, 118.04 151.66, 104.96 152.52 C91.87 153.38, 77.07 152.09, 64.55 149.13 C52.04 146.17, 39.18 141.4, 29.85 134.78 C20.53 128.15, 13.75 119.4, 8.6 109.39 C3.44 99.37, -1.37 85.12, -1.08 74.67 C-0.79 64.21, 4.96 56.09, 10.34 46.66 C15.72 37.23, 15.95 26, 31.2 18.1 C46.45 10.2, 84.35 0.56, 101.82 -0.75 C119.29 -2.06, 136.45 8.84, 136.01 10.23 M166.23 26.47 C175.05 33.62, 182.33 46.37, 186.23 55.93 C190.12 65.48, 191.28 73.43, 189.59 83.79 C187.91 94.15, 182.85 109.05, 176.12 118.09 C169.39 127.12, 159.48 132.46, 149.22 137.97 C138.96 143.49, 126.9 148.81, 114.54 151.19 C102.18 153.58, 87.31 154.57, 75.06 152.29 C62.81 150.01, 51.42 143.5, 41.01 137.5 C30.61 131.5, 19.13 125.3, 12.64 116.3 C6.15 107.3, 3.43 93.87, 2.08 83.5 C0.73 73.14, 0.4 64.2, 4.55 54.08 C8.69 43.96, 17.71 31.01, 26.97 22.78 C36.23 14.56, 48.59 8.34, 60.11 4.71 C71.64 1.09, 83.22 0.17, 96.12 1.06 C109.02 1.95, 125.65 5.33, 137.5 10.05 C149.36 14.76, 162.3 26.21, 167.26 29.33 C172.22 32.45, 168.14 28.07, 167.24 28.76" stroke="#1e1e1e" stroke-width="4" fill="none"></path></g><g transform="translate(2799.0536344799257 2262.5252474036824) rotate(0 56.89866667588467 35)"><text x="56.898666675885515" y="24.668" font-family="Virgil, Segoe UI Emoji" font-size="28px" fill="#1e1e1e" text-anchor="middle" style="white-space: pre;" direction="ltr" dominant-baseline="alphabetic">Return</text><text x="56.898666675885515" y="59.668" font-family="Virgil, Segoe UI Emoji" font-size="28px" fill="#1e1e1e" text-anchor="middle" style="white-space: pre;" direction="ltr" dominant-baseline="alphabetic">instance</text></g><g stroke-linecap="round" transform="translate(1417.8782139856376 2285.6419739180765) rotate(0 169.45600740949703 32.98571136597093)"><path d="M16.49 0 C85.53 -2.57, 151.03 0.74, 322.42 0 M16.49 0 C129.45 2.62, 241.23 3.16, 322.42 0 M322.42 0 C335.42 3.65, 338.71 3.41, 338.91 16.49 M322.42 0 C334.13 3.44, 337.97 2.88, 338.91 16.49 M338.91 16.49 C337.56 29.12, 338.66 40.83, 338.91 49.48 M338.91 16.49 C338.78 26.48, 337.23 33.31, 338.91 49.48 M338.91 49.48 C338.98 62.18, 329.9 62.02, 322.42 65.97 M338.91 49.48 C336.87 58.55, 335.52 65.53, 322.42 65.97 M322.42 65.97 C198.88 69.43, 81.16 68.28, 16.49 65.97 M322.42 65.97 C226.65 64.54, 132.95 64.54, 16.49 65.97 M16.49 65.97 C4.23 63.95, -3 62.86, 0 49.48 M16.49 65.97 C4.73 61.5, -2.59 59.12, 0 49.48 M0 49.48 C-4.45 40.18, 1.93 31.7, 0 16.49 M0 49.48 C1.45 43.3, 2.07 35.66, 0 16.49 M0 16.49 C2.34 6.95, 1.5 -2.84, 16.49 0 M0 16.49 C3.21 10.03, 5.31 2.78, 16.49 0" stroke="#2f9e44" stroke-width="2" fill="none"></path></g><g transform="translate(1468.256888135551 2301.1276852840474) rotate(0 119.07733325958179 17.5)"><text x="119.07733325958252" y="24.668" font-family="Virgil, Segoe UI Emoji" font-size="28px" fill="#2f9e44" text-anchor="middle" style="white-space: pre;" direction="ltr" dominant-baseline="alphabetic">set to cache (2)</text></g><g stroke-linecap="round"><g transform="translate(2644.66214197901 554.8131921712065) rotate(0 34.12005553333074 -1.176553639080339)"><path d="M0.31 1.41 C12.02 0.3, 59.2 -3.68, 70.9 -4.77 M-2.97 -0.29 C8.55 -1.31, 57.95 -1.91, 70.1 -2.45" stroke="#1e1e1e" stroke-width="4" fill="none"></path></g></g><mask></mask><g transform="translate(2752.9050767743975 530.84144122408) rotate(0 137.72466711203197 17.5)"><text x="0" y="24.668" font-family="Virgil, Segoe UI Emoji" font-size="28px" fill="#1e1e1e" text-anchor="start" style="white-space: pre;" direction="ltr" dominant-baseline="alphabetic">Call to a sub group</text></g><g transform="translate(1803.2434147155618 1615.9462320167095) rotate(0 232.46333319346195 25)"><text x="0" y="17.619999999999997" font-family="Excalifont, Xiaolai, Segoe UI Emoji" font-size="20px" fill="#1e1e1e" text-anchor="start" style="white-space: pre;" direction="ltr" dominant-baseline="alphabetic">Apply the appropriate strategy to invoke token</text><text x="0" y="42.62" font-family="Excalifont, Xiaolai, Segoe UI Emoji" font-size="20px" fill="#1e1e1e" text-anchor="start" style="white-space: pre;" direction="ltr" dominant-baseline="alphabetic"></text></g><g stroke-linecap="round" transform="translate(1409.2931188330658 1596.0378578433483) rotate(0 169.45600740949703 40)"><path d="M20 0 C98.35 3.95, 176.96 -1.02, 318.91 0 M20 0 C101.64 -4.87, 184.08 -4.36, 318.91 0 M318.91 0 C335.6 -3.02, 337.89 2.88, 338.91 20 M318.91 0 C329.59 4.01, 340.66 7.49, 338.91 20 M338.91 20 C337.29 38.41, 340.58 53.06, 338.91 60 M338.91 20 C339.07 33.12, 338.5 44.03, 338.91 60 M338.91 60 C341.59 76.11, 331.61 81.91, 318.91 80 M338.91 60 C340.43 68.98, 328.72 83.72, 318.91 80 M318.91 80 C219.13 75.77, 115.81 76.35, 20 80 M318.91 80 C215.15 75.83, 112.55 74.55, 20 80 M20 80 C3.92 82.06, 1.57 72.29, 0 60 M20 80 C10.63 77.76, -2.69 73.9, 0 60 M0 60 C-2.02 42.87, 2.18 30.6, 0 20 M0 60 C-0.68 44.77, -0.26 27.12, 0 20 M0 20 C0.11 3.28, 8.65 3.79, 20 0 M0 20 C4.41 2.12, 9.93 2.49, 20 0" stroke="#2f9e44" stroke-width="2" fill="none"></path></g><g transform="translate(1440.1264595696957 1601.0378578433483) rotate(0 138.6226666728653 35)"><text x="138.62266667286553" y="24.668" font-family="Virgil, Segoe UI Emoji" font-size="28px" fill="#2f9e44" text-anchor="middle" style="white-space: pre;" direction="ltr" dominant-baseline="alphabetic">resolve provider and</text><text x="138.62266667286553" y="59.668" font-family="Virgil, Segoe UI Emoji" font-size="28px" fill="#2f9e44" text-anchor="middle" style="white-space: pre;" direction="ltr" dominant-baseline="alphabetic">provider type</text></g><g stroke-linecap="round"><g transform="translate(1577.6063748262968 1683.5124741784912) rotate(0 0.29797000061080325 37.05245537903647)"><path d="M-2.06 -2.54 C-1.39 10.16, 2.13 62.73, 2.48 75.26 M2.02 2.25 C2.63 14.19, 1.94 58.77, 1.26 70.87" stroke="#1e1e1e" stroke-width="1" fill="none"></path></g><g transform="translate(1577.6063748262968 1683.5124741784912) rotate(0 0.29797000061080325 37.05245537903647)"><path d="M-8.34 48.46 C-3.88 52.61, -3.87 59.99, 2.86 70.24 M-6.94 47.22 C-3.03 55.68, -0.11 65.1, 0.5 70.53" stroke="#1e1e1e" stroke-width="1" fill="none"></path></g><g transform="translate(1577.6063748262968 1683.5124741784912) rotate(0 0.29797000061080325 37.05245537903647)"><path d="M8.75 49.01 C9.02 52.9, 4.83 60.15, 2.86 70.24 M10.16 47.77 C7.68 56.07, 4.23 65.29, 0.5 70.53" stroke="#1e1e1e" stroke-width="1" fill="none"></path></g></g><mask></mask><g stroke-linecap="round" transform="translate(1423.2136331251895 1919.4210221799494) rotate(0 151.17638071984766 113.9102219006163)"><path d="M190 28.5 C208.32 43.79, 236.26 60.63, 264.35 85.5 M190 28.5 C216.71 47.04, 240.38 63.42, 264.35 85.5 M264.35 85.5 C303.51 115.69, 300.63 114.22, 264.35 142.5 M264.35 85.5 C298.53 113.8, 305.67 117.48, 264.35 142.5 M264.35 142.5 C244.13 153.67, 225.38 172.59, 190 199.32 M264.35 142.5 C232.44 163.91, 205.91 187.04, 190 199.32 M190 199.32 C154.56 224.45, 155.49 229.38, 114 199.32 M190 199.32 C156.26 226.93, 153.56 230.74, 114 199.32 M114 199.32 C96.31 189.56, 75.19 174.61, 38 142.5 M114 199.32 C84.52 176.97, 55.55 155.96, 38 142.5 M38 142.5 C2.58 117.93, 0.82 116.31, 38 85.5 M38 142.5 C-4.34 113.12, -1.62 111.67, 38 85.5 M38 85.5 C59.29 68.85, 86.31 48.48, 114 28.5 M38 85.5 C62.65 64.2, 92.74 46.97, 114 28.5 M114 28.5 C150.89 -1.88, 150.56 0.38, 190 28.5 M114 28.5 C148.75 1.28, 147.54 -2.33, 190 28.5" stroke="#2f9e44" stroke-width="4" fill="none"></path></g><g transform="translate(1515.0084902248927 1998.3761331302576) rotate(0 59.29333326021879 35)"><text x="59.293333260218304" y="24.668" font-family="Virgil, Segoe UI Emoji" font-size="28px" fill="#2f9e44" text-anchor="middle" style="white-space: pre;" direction="ltr" dominant-baseline="alphabetic">Is</text><text x="59.293333260218304" y="59.668" font-family="Virgil, Segoe UI Emoji" font-size="28px" fill="#2f9e44" text-anchor="middle" style="white-space: pre;" direction="ltr" dominant-baseline="alphabetic">Singleton</text></g><g stroke-linecap="round"><g transform="translate(1580.3075201498978 2165.10057786749) rotate(0 1.8435747408620955 52.469064096752845)"><path d="M2.51 1.11 C3.42 18.47, 3.44 89.5, 3.52 106.41 M0.42 -0.76 C1.12 15.57, 1.12 84.68, 1.19 102.19" stroke="#1e1e1e" stroke-width="1" fill="none"></path></g><g transform="translate(1580.3075201498978 2165.10057786749) rotate(0 1.8435747408620955 52.469064096752845)"><path d="M-6.62 78.6 C-4.2 83.57, -4.99 88.24, 1.11 103.4 M-7.05 79.36 C-6.03 84.75, -3.43 90.69, 1.3 102.52" stroke="#1e1e1e" stroke-width="1" fill="none"></path></g><g transform="translate(1580.3075201498978 2165.10057786749) rotate(0 1.8435747408620955 52.469064096752845)"><path d="M10.48 78.56 C8.97 83.69, 4.24 88.37, 1.11 103.4 M10.05 79.32 C6.81 84.72, 5.15 90.67, 1.3 102.52" stroke="#1e1e1e" stroke-width="1" fill="none"></path></g></g><mask></mask><g stroke-linecap="round"><g transform="translate(1578.7491262425574 1844.7996328872414) rotate(0 0 35.96267727965187)"><path d="M-0.31 -0.17 C-0.09 11.39, -1.23 59.34, -1.52 70.93 M-3.92 -2.73 C-2.52 9.09, 2.79 61.72, 4.05 74.03" stroke="#1e1e1e" stroke-width="1" fill="none"></path></g><g transform="translate(1578.7491262425574 1844.7996328872414) rotate(0 0 35.96267727965187)"><path d="M-6.96 50.43 C-5.24 54.57, -4.17 61.88, 4.87 73.64 M-7.15 52.25 C-4.43 57.22, -1.77 62.6, 4.73 73.76" stroke="#1e1e1e" stroke-width="1" fill="none"></path></g><g transform="translate(1578.7491262425574 1844.7996328872414) rotate(0 0 35.96267727965187)"><path d="M10.06 48.7 C8.38 53.16, 6.04 60.82, 4.87 73.64 M9.86 50.52 C8.42 56.05, 6.9 61.85, 4.73 73.76" stroke="#1e1e1e" stroke-width="1" fill="none"></path></g></g><mask></mask><g stroke-linecap="round" transform="translate(2075.677778450681 1951.0838552432815) rotate(0 95.91063385645248 76.79849834037032)"><path d="M79.75 3.31 C91.86 0.51, 106.04 1.01, 118.21 3.23 C130.38 5.44, 142.66 10.15, 152.76 16.61 C162.86 23.07, 172.11 32.82, 178.81 41.98 C185.52 51.14, 191.48 61.56, 192.97 71.58 C194.46 81.61, 192.25 92.45, 187.77 102.15 C183.28 111.85, 175.55 121.99, 166.06 129.78 C156.57 137.58, 142.74 144.69, 130.83 148.9 C118.91 153.12, 106.99 155.3, 94.58 155.08 C82.17 154.85, 68.36 152.16, 56.37 147.56 C44.37 142.95, 31.34 135.46, 22.6 127.45 C13.85 119.44, 7.64 109.82, 3.89 99.49 C0.15 89.17, -1.53 75.83, 0.13 65.49 C1.8 55.16, 7.19 45.93, 13.88 37.47 C20.58 29, 28.07 20.98, 40.31 14.7 C52.55 8.42, 77.82 2.13, 87.31 -0.21 C96.81 -2.55, 97.17 -0.8, 97.28 0.66 M163.92 23.06 C174.1 29.04, 183.47 37.75, 188.11 47.02 C192.75 56.28, 192.52 68.14, 191.77 78.66 C191.03 89.18, 190 100.1, 183.66 110.13 C177.33 120.16, 163.71 131.63, 153.74 138.83 C143.78 146.04, 135.49 150.63, 123.88 153.36 C112.27 156.09, 97.65 156.74, 84.09 155.24 C70.53 153.74, 54 150.9, 42.51 144.37 C31.02 137.84, 21.6 125.51, 15.17 116.08 C8.73 106.65, 5.67 97.24, 3.89 87.78 C2.1 78.31, 1.57 69.42, 4.44 59.29 C7.31 49.16, 13.22 35.23, 21.11 26.98 C29 18.72, 40.05 14.71, 51.76 9.76 C63.47 4.82, 78.33 -2.13, 91.35 -2.71 C104.37 -3.28, 118.01 1.96, 129.87 6.33 C141.73 10.7, 156.72 20.42, 162.5 23.5 C168.27 26.58, 165.2 23.66, 164.53 24.83" stroke="#1e1e1e" stroke-width="4" fill="none"></path></g><g transform="translate(2114.8706860434504 1993.0776146222324) rotate(0 56.89866667588467 35)"><text x="56.898666675885515" y="24.668" font-family="Virgil, Segoe UI Emoji" font-size="28px" fill="#1e1e1e" text-anchor="middle" style="white-space: pre;" direction="ltr" dominant-baseline="alphabetic">Return</text><text x="56.898666675885515" y="59.668" font-family="Virgil, Segoe UI Emoji" font-size="28px" fill="#1e1e1e" text-anchor="middle" style="white-space: pre;" direction="ltr" dominant-baseline="alphabetic">instance</text></g><g stroke-linecap="round"><g transform="translate(1740.0972943023153 2029.7334336284785) rotate(0 156.80273552341714 0.6518282117058334)"><path d="M0.85 2.47 C52.72 3.29, 260.65 4.32, 312.5 3.88 M-2.13 1.34 C49.15 1.52, 256.32 0.13, 309.66 0.27" stroke="#1e1e1e" stroke-width="1" fill="none"></path></g><g transform="translate(1740.0972943023153 2029.7334336284785) rotate(0 156.80273552341714 0.6518282117058334)"><path d="M287.95 8.09 C296.2 4.63, 301.46 1.77, 307.8 -1.2 M286.77 8.67 C293.73 5.68, 299.61 4.79, 310.01 -0.72" stroke="#1e1e1e" stroke-width="1" fill="none"></path></g><g transform="translate(1740.0972943023153 2029.7334336284785) rotate(0 156.80273552341714 0.6518282117058334)"><path d="M287.91 -9.01 C296.11 -6.54, 301.38 -3.47, 307.8 -1.2 M286.72 -8.43 C293.87 -6.33, 299.77 -2.13, 310.01 -0.72" stroke="#1e1e1e" stroke-width="1" fill="none"></path></g></g><mask></mask><g transform="translate(1877.3483254736093 1972.7525610120156) rotate(0 17.550000254314 17.5)"><text x="0" y="24.668" font-family="Excalifont, Xiaolai, Segoe UI Emoji" font-size="28px" fill="#1e1e1e" text-anchor="start" style="white-space: pre;" direction="ltr" dominant-baseline="alphabetic">No</text></g><g transform="translate(1629.735370033868 2184.7468494849963) rotate(0 23.11866696675679 17.5)"><text x="0" y="24.668" font-family="Virgil, Segoe UI Emoji" font-size="28px" fill="#1e1e1e" text-anchor="start" style="white-space: pre;" direction="ltr" dominant-baseline="alphabetic">Yes</text></g><g stroke-linecap="round" transform="translate(2660.6183876763425 2062.0427522099635) rotate(0 193.80795900354678 32.98571136597093)"><path d="M16.49 0 C129.43 -5.11, 240.62 -4.67, 371.12 0 M16.49 0 C139.33 1.08, 261.79 -0.34, 371.12 0 M371.12 0 C382.66 1.3, 386.97 7.14, 387.62 16.49 M371.12 0 C384.76 -0.32, 389.8 8.9, 387.62 16.49 M387.62 16.49 C388.14 21.39, 388.05 31.5, 387.62 49.48 M387.62 16.49 C388.43 28.55, 387.17 34.83, 387.62 49.48 M387.62 49.48 C384.6 56.88, 380 63.84, 371.12 65.97 M387.62 49.48 C383.68 61.3, 386.7 65.95, 371.12 65.97 M371.12 65.97 C244.7 63.14, 119.05 59.14, 16.49 65.97 M371.12 65.97 C243.42 67.18, 113.32 68.68, 16.49 65.97 M16.49 65.97 C1.86 68.04, 0.39 60.52, 0 49.48 M16.49 65.97 C7.83 64.72, 2.94 62, 0 49.48 M0 49.48 C-1.63 34.72, 4.16 26.22, 0 16.49 M0 49.48 C-0.85 43.42, 0.64 36.16, 0 16.49 M0 16.49 C-0.82 6.08, 4.28 -2.93, 16.49 0 M0 16.49 C-2.39 7.61, 5.78 -3.26, 16.49 0" stroke="#6741d9" stroke-width="2" fill="none"></path></g><g transform="translate(2760.911679963632 2077.5284635759344) rotate(0 93.51466671625712 17.5)"><text x="93.51466671625772" y="24.668" font-family="Virgil, Segoe UI Emoji" font-size="28px" fill="#6741d9" text-anchor="middle" style="white-space: pre;" direction="ltr" dominant-baseline="alphabetic">$afterInvoke</text></g><g stroke-linecap="round" transform="translate(2662.797943875099 1746.0071033887762) rotate(0 193.80795900354678 32.98571136597093)"><path d="M16.49 0 C93.55 -1.95, 171.12 -0.76, 371.12 0 M16.49 0 C139.89 0.55, 260.29 0.7, 371.12 0 M371.12 0 C379.95 -2.63, 390.78 4.83, 387.62 16.49 M371.12 0 C380.81 -4.34, 389.46 2.45, 387.62 16.49 M387.62 16.49 C387.86 27.07, 386.11 36.14, 387.62 49.48 M387.62 16.49 C389.97 27.83, 388.32 41.77, 387.62 49.48 M387.62 49.48 C389.73 57.74, 379.22 62.56, 371.12 65.97 M387.62 49.48 C384.77 64.05, 384.87 67.97, 371.12 65.97 M371.12 65.97 C246.36 60.85, 126.63 60.51, 16.49 65.97 M371.12 65.97 C263.4 63.58, 155.3 64.34, 16.49 65.97 M16.49 65.97 C1.85 62.61, -2.82 60.05, 0 49.48 M16.49 65.97 C1.62 63.5, -4.52 65.06, 0 49.48 M0 49.48 C0.82 38.89, 2.53 28.95, 0 16.49 M0 49.48 C1.05 36.62, -0.32 23.45, 0 16.49 M0 16.49 C-0.57 2.9, 7.17 -3.17, 16.49 0 M0 16.49 C2.09 5.04, 5.09 2.16, 16.49 0" stroke="#6741d9" stroke-width="2" fill="none"></path></g><g transform="translate(2699.4852360091645 1761.492814754747) rotate(0 157.12066686948128 17.5)"><text x="157.1206668694814" y="24.668" font-family="Virgil, Segoe UI Emoji" font-size="28px" fill="#6741d9" text-anchor="middle" style="white-space: pre;" direction="ltr" dominant-baseline="alphabetic">$beforeInvoke:${type}</text></g><g stroke-linecap="round"><g transform="translate(2858.7854590774186 1680.9127858102402) rotate(0 0 29.42400868335153)"><path d="M-1.89 0.33 C-1.71 10.01, -0.09 50.76, 0.66 60.1 M2.28 -1.96 C2.19 6.7, -1.2 45.75, -1.22 55.77" stroke="#1e1e1e" stroke-width="1" fill="none"></path></g><g transform="translate(2858.7854590774186 1680.9127858102402) rotate(0 0 29.42400868335153)"><path d="M-8.38 32.36 C-5.45 40.55, -6.01 46.37, -0.56 55 M-8.01 31.74 C-6.78 39.05, -3.54 46.51, -1.31 55.99" stroke="#1e1e1e" stroke-width="1" fill="none"></path></g><g transform="translate(2858.7854590774186 1680.9127858102402) rotate(0 0 29.42400868335153)"><path d="M8.7 33.2 C6.79 41.03, 1.39 46.62, -0.56 55 M9.07 32.58 C5.08 39.47, 3.1 46.67, -1.31 55.99" stroke="#1e1e1e" stroke-width="1" fill="none"></path></g></g><mask></mask><g stroke-linecap="round"><g transform="translate(2858.7854590774186 1822.583938730082) rotate(0 0 30.513786782735224)"><path d="M-0.39 -0.65 C-0.42 9.8, -1.22 50.97, -0.81 60.93 M-4.04 -3.47 C-4.46 7.61, -4.39 53.73, -3.49 64.51" stroke="#1e1e1e" stroke-width="1" fill="none"></path></g><g transform="translate(2858.7854590774186 1822.583938730082) rotate(0 0 30.513786782735224)"><path d="M-13.31 40.75 C-10.46 49.25, -9.15 52.36, -3.55 65.66 M-13.77 41.02 C-10.89 47.34, -8.19 54.3, -2.81 65.27" stroke="#1e1e1e" stroke-width="1" fill="none"></path></g><g transform="translate(2858.7854590774186 1822.583938730082) rotate(0 0 30.513786782735224)"><path d="M3.78 40.16 C1.88 48.8, -1.55 52.07, -3.55 65.66 M3.32 40.43 C1.38 46.85, -0.74 53.97, -2.81 65.27" stroke="#1e1e1e" stroke-width="1" fill="none"></path></g></g><mask></mask><g stroke-linecap="round"><g transform="translate(2852.2467904811165 1986.0506536375924) rotate(0 0 32.69334298150261)"><path d="M0.15 2.66 C-0.19 13.44, -2.15 57.17, -2.28 67.44 M-3.22 1.64 C-2.66 12.84, 2.81 52.68, 2.88 63.54" stroke="#1e1e1e" stroke-width="1" fill="none"></path></g><g transform="translate(2852.2467904811165 1986.0506536375924) rotate(0 0 32.69334298150261)"><path d="M-5.56 39.15 C-2.77 46.92, -2.01 52.01, 2.2 63.2 M-7.05 41 C-4.05 49.57, -0.59 58.31, 2.62 64.31" stroke="#1e1e1e" stroke-width="1" fill="none"></path></g><g transform="translate(2852.2467904811165 1986.0506536375924) rotate(0 0 32.69334298150261)"><path d="M11.49 37.83 C9.35 45.99, 5.16 51.46, 2.2 63.2 M9.99 39.67 C6.65 48.64, 3.76 57.88, 2.62 64.31" stroke="#1e1e1e" stroke-width="1" fill="none"></path></g></g><mask></mask><g stroke-linecap="round"><g transform="translate(2854.426346679884 2138.6195875512694) rotate(0 0 34.87289918026909)"><path d="M-2.58 1.96 C-2.09 13.34, 0.02 58.46, 0.54 69.75 M1.22 0.55 C1.59 12.29, -1.04 61.34, -1.4 73.38" stroke="#1e1e1e" stroke-width="1" fill="none"></path></g><g transform="translate(2854.426346679884 2138.6195875512694) rotate(0 0 34.87289918026909)"><path d="M-7.55 49.93 C-7.2 55.15, -5.6 60.89, -1.4 71.85 M-8.8 49.02 C-7.3 56.86, -3.7 65.23, -0.93 74.25" stroke="#1e1e1e" stroke-width="1" fill="none"></path></g><g transform="translate(2854.426346679884 2138.6195875512694) rotate(0 0 34.87289918026909)"><path d="M9.53 50.66 C6.2 55.56, 4.11 61.15, -1.4 71.85 M8.29 49.75 C4.35 57.43, 2.51 65.57, -0.93 74.25" stroke="#1e1e1e" stroke-width="1" fill="none"></path></g></g><mask></mask><g transform="translate(3100.7161971405803 1622.0647684434862) rotate(0 35.1113334019974 17.5)"><text x="0" y="24.668" font-family="Excalifont, Xiaolai, Segoe UI Emoji" font-size="28px" fill="#e03131" text-anchor="start" style="white-space: pre;" direction="ltr" dominant-baseline="alphabetic">new !</text></g><g transform="translate(3091.7595381237807 2075.348907377118) rotate(0 35.1113334019974 17.5)"><text x="0" y="24.668" font-family="Excalifont, Xiaolai, Segoe UI Emoji" font-size="28px" fill="#e03131" text-anchor="start" style="white-space: pre;" direction="ltr" dominant-baseline="alphabetic">new !</text></g><g transform="translate(3096.118650521319 1761.492814754698) rotate(0 35.1113334019974 17.5)"><text x="0" y="24.668" font-family="Excalifont, Xiaolai, Segoe UI Emoji" font-size="28px" fill="#e03131" text-anchor="start" style="white-space: pre;" direction="ltr" dominant-baseline="alphabetic">new !</text></g><g transform="translate(1790.1660775229539 301.3920689554052) rotate(0 84.25999991098979 12.5)"><text x="0" y="17.619999999999997" font-family="Excalifont, Xiaolai, Segoe UI Emoji" font-size="20px" fill="#e03131" text-anchor="start" style="white-space: pre;" direction="ltr" dominant-baseline="alphabetic">Changed in v8 (1)</text></g><g transform="translate(2653.270332234566 839.7424500508041) rotate(0 16.700000762939453 12.5)"><text x="0" y="17.619999999999997" font-family="Excalifont, Xiaolai, Segoe UI Emoji" font-size="20px" fill="#e03131" text-anchor="start" style="white-space: pre;" direction="ltr" dominant-baseline="alphabetic">(1) </text></g><g transform="translate(2648.9112198370494 693.0712971309567) rotate(0 35.1113334019974 17.5)"><text x="0" y="24.668" font-family="Excalifont, Xiaolai, Segoe UI Emoji" font-size="28px" fill="#e03131" text-anchor="start" style="white-space: pre;" direction="ltr" dominant-baseline="alphabetic">new !</text></g><g transform="translate(2757.889029775404 686.5326285346418) rotate(0 196.9773333867397 17.5)"><text x="0" y="24.668" font-family="Excalifont, Xiaolai, Segoe UI Emoji" font-size="28px" fill="#e03131" text-anchor="start" style="white-space: pre;" direction="ltr" dominant-baseline="alphabetic">new feature introduced in v8</text></g><g transform="translate(2714.2979058000747 839.1015624483152) rotate(0 487.2966665903732 25)"><text x="0" y="17.619999999999997" font-family="Excalifont, Xiaolai, Segoe UI Emoji" font-size="20px" fill="#1e1e1e" text-anchor="start" style="white-space: pre;" direction="ltr" dominant-baseline="alphabetic">$beforeInit was called after resolution because hooks are based on initialised providers to works.</text><text x="0" y="42.62" font-family="Excalifont, Xiaolai, Segoe UI Emoji" font-size="20px" fill="#1e1e1e" text-anchor="start" style="white-space: pre;" direction="ltr" dominant-baseline="alphabetic">With v8, hooks can be called anywhere, from a class or from a function using @tsed/hooks package.</text></g><g transform="translate(1798.884302318038 819.4855566594088) rotate(0 15.516666571298629 12.5)"><text x="0" y="17.619999999999997" font-family="Excalifont, Xiaolai, Segoe UI Emoji" font-size="20px" fill="#e03131" text-anchor="start" style="white-space: pre;" direction="ltr" dominant-baseline="alphabetic">(2)</text></g><g transform="translate(2649.647668664311 961.7340467718604) rotate(0 19.433332443237305 12.5)"><text x="0" y="17.619999999999997" font-family="Excalifont, Xiaolai, Segoe UI Emoji" font-size="20px" fill="#e03131" text-anchor="start" style="white-space: pre;" direction="ltr" dominant-baseline="alphabetic">(2) </text></g><g transform="translate(2708.683159137221 964.4909401632285) rotate(0 480.23333740234375 25)"><text x="0" y="17.619999999999997" font-family="Excalifont, Xiaolai, Segoe UI Emoji" font-size="20px" fill="#1e1e1e" text-anchor="start" style="white-space: pre;" direction="ltr" dominant-baseline="alphabetic">$onInit keep his place to stay compatible with existing injectable classes implementation. $onInit </text><text x="0" y="42.62" font-family="Excalifont, Xiaolai, Segoe UI Emoji" font-size="20px" fill="#1e1e1e" text-anchor="start" style="white-space: pre;" direction="ltr" dominant-baseline="alphabetic">is used to run asynchronous script initialisation like is it with Angular components.</text></g><g transform="translate(226.27086160414183 10) rotate(0 292.3839994748432 22.5)"><text x="0" y="31.716" font-family="Virgil, Segoe UI Emoji" font-size="36px" fill="#1971c2" text-anchor="start" style="white-space: pre;" direction="ltr" dominant-baseline="alphabetic">PlatformBuilder lifecycle (Server)</text></g><g stroke-linecap="round" transform="translate(10.000000000014552 224.85874295111716) rotate(0 515.599187858601 608.7419022457889)"><path d="M32 0 C401.69 2.25, 770.77 2.55, 999.2 0 M999.2 0 C1022.23 -0.46, 1032.53 9.72, 1031.2 32 M1031.2 32 C1029.03 444.61, 1028.34 856.58, 1031.2 1185.48 M1031.2 1185.48 C1030.6 1207.11, 1020.59 1216.68, 999.2 1217.48 M999.2 1217.48 C769.21 1219.77, 538.76 1219.61, 32 1217.48 M32 1217.48 C12.16 1217.82, -1.04 1206.35, 0 1185.48 M0 1185.48 C-3.78 831.26, -3.06 477.99, 0 32 M0 32 C0.03 12.37, 11.81 -0.59, 32 0" stroke="#1e1e1e" stroke-width="1.5" fill="none" stroke-dasharray="8 9"></path></g><g transform="translate(34.97417636815953 165.0821037390997) rotate(0 189.38133325576746 17.5)"><text x="0" y="24.668" font-family="Virgil, Segoe UI Emoji" font-size="28px" fill="#1e1e1e" text-anchor="start" style="white-space: pre;" direction="ltr" dominant-baseline="alphabetic">PlatformBuilder.bootstrap()</text></g><g stroke-linecap="round" transform="translate(103.06355453612196 410.93224080785876) rotate(0 169.45600740949703 32.98571136597093)"><path d="M16.49 0 C97.76 5.25, 182.11 3.11, 322.42 0 M16.49 0 C89.84 -1.29, 164.96 0.92, 322.42 0 M322.42 0 C330.62 -3.61, 338.9 6.64, 338.91 16.49 M322.42 0 C330.12 -2.65, 339.53 2.28, 338.91 16.49 M338.91 16.49 C335.87 29.78, 342.39 41.56, 338.91 49.48 M338.91 16.49 C338.05 28.59, 341.18 36.91, 338.91 49.48 M338.91 49.48 C338.19 57.52, 330.81 66.57, 322.42 65.97 M338.91 49.48 C342.36 58.75, 333 66.3, 322.42 65.97 M322.42 65.97 C215.56 70.32, 112.04 71.47, 16.49 65.97 M322.42 65.97 C214.13 71.27, 106.96 70.62, 16.49 65.97 M16.49 65.97 C4.13 66.67, 3.96 62.21, 0 49.48 M16.49 65.97 C7.56 68.05, -0.82 56.79, 0 49.48 M0 49.48 C-1.47 41.31, -3.03 33.92, 0 16.49 M0 49.48 C-2.06 41.93, 0.5 35.73, 0 16.49 M0 16.49 C-0.92 7.24, 3.62 2.33, 16.49 0 M0 16.49 C-1.66 1.75, 9.14 3.75, 16.49 0" stroke="#1e1e1e" stroke-width="2" fill="none"></path></g><g transform="translate(167.39956202032408 426.4179521738297) rotate(0 105.1199999252949 17.5)"><text x="105.11999992529552" y="24.668" font-family="Virgil, Segoe UI Emoji" font-size="28px" fill="#1e1e1e" text-anchor="middle" style="white-space: pre;" direction="ltr" dominant-baseline="alphabetic">injector().load()</text></g><g stroke-linecap="round" transform="translate(100.12076818829155 275.6784961122303) rotate(0 169.45600740949703 40)"><path d="M20 0 C84.37 1.4, 146.24 3.86, 318.91 0 M20 0 C85.26 1.95, 150.97 3, 318.91 0 M318.91 0 C333.02 -0.84, 339.79 9.02, 338.91 20 M318.91 0 C330.07 -1.72, 342.94 8.56, 338.91 20 M338.91 20 C335.71 37.15, 335.23 46.04, 338.91 60 M338.91 20 C340.01 35.24, 338.53 46.9, 338.91 60 M338.91 60 C336.56 74.17, 335.75 81.72, 318.91 80 M338.91 60 C336.62 75.33, 332.03 81.49, 318.91 80 M318.91 80 C238.06 77.27, 162.78 76.62, 20 80 M318.91 80 C257.93 80.05, 193.15 82.29, 20 80 M20 80 C7.8 76.65, -1.25 71.11, 0 60 M20 80 C7.12 82.69, -4.19 74.62, 0 60 M0 60 C0.06 44.32, 1.39 34.1, 0 20 M0 60 C-0.54 47.48, -1.71 37.45, 0 20 M0 20 C-1.63 10.27, 7.05 -1.08, 20 0 M0 20 C1.93 2.17, 6.88 -4.28, 20 0" stroke="#2f9e44" stroke-width="2" fill="none"></path></g><g transform="translate(157.19344181146153 280.6784961122303) rotate(0 112.38333378632888 35)"><text x="112.38333378632863" y="24.668" font-family="Virgil, Segoe UI Emoji" font-size="28px" fill="#2f9e44" text-anchor="middle" style="white-space: pre;" direction="ltr" dominant-baseline="alphabetic">Create platform</text><text x="112.38333378632863" y="59.668" font-family="Virgil, Segoe UI Emoji" font-size="28px" fill="#2f9e44" text-anchor="middle" style="white-space: pre;" direction="ltr" dominant-baseline="alphabetic">adapter</text></g><g stroke-linecap="round" transform="translate(103.06355453610013 542.037553041997) rotate(0 169.45600740949703 32.98571136597093)"><path d="M16.49 0 C99.54 -3.86, 184.77 0.52, 322.42 0 M16.49 0 C129.91 -1.5, 245.63 -1.21, 322.42 0 M322.42 0 C336.62 -2.66, 342.86 2.09, 338.91 16.49 M322.42 0 C336.12 1.28, 336.42 7.15, 338.91 16.49 M338.91 16.49 C337.44 26.71, 341.16 41.63, 338.91 49.48 M338.91 16.49 C337.81 28.32, 340.17 36.08, 338.91 49.48 M338.91 49.48 C338.59 62.59, 334.92 67.14, 322.42 65.97 M338.91 49.48 C341.57 64.51, 333.25 65.16, 322.42 65.97 M322.42 65.97 C236.63 67.04, 150.57 64.73, 16.49 65.97 M322.42 65.97 C226.08 66.61, 128.64 68.01, 16.49 65.97 M16.49 65.97 C9.07 67.49, -0.56 62.35, 0 49.48 M16.49 65.97 C2.84 69.89, -1.74 60.36, 0 49.48 M0 49.48 C-0.74 42.52, 0.08 34.02, 0 16.49 M0 49.48 C1.39 39.36, 0.08 32.01, 0 16.49 M0 16.49 C2.05 6.69, 1.74 -1, 16.49 0 M0 16.49 C2.74 5.19, 8.94 -3.68, 16.49 0" stroke="#1971c2" stroke-width="2" fill="none"></path></g><g transform="translate(198.40289324442347 557.5232644079679) rotate(0 74.11666870117188 17.5)"><text x="74.11666870117188" y="24.668" font-family="Virgil, Segoe UI Emoji" font-size="28px" fill="#1971c2" text-anchor="middle" style="white-space: pre;" direction="ltr" dominant-baseline="alphabetic">$afterInit</text></g><g stroke-linecap="round" transform="translate(114.83469992739629 923.4600888776858) rotate(0 169.45600740949703 40)"><path d="M20 0 C92.9 1.48, 164 -0.78, 318.91 0 M20 0 C80.94 -4, 139.85 -3.12, 318.91 0 M318.91 0 C331.36 3.04, 339.12 3.47, 338.91 20 M318.91 0 C333.88 2.64, 336.95 7.85, 338.91 20 M338.91 20 C338.45 30.49, 337.37 48.03, 338.91 60 M338.91 20 C339.58 29.98, 341.03 38.82, 338.91 60 M338.91 60 C336.54 75.93, 333.06 76.97, 318.91 80 M338.91 60 C340.21 77.64, 334.23 78.65, 318.91 80 M318.91 80 C222.26 83.07, 129.68 82.23, 20 80 M318.91 80 C246.65 77.91, 176.6 76.79, 20 80 M20 80 C7.53 77.92, -3.36 72.3, 0 60 M20 80 C9.46 83.7, 1.17 74.41, 0 60 M0 60 C2.05 46.49, -2.87 39.57, 0 20 M0 60 C0.44 48.26, 2.28 33.88, 0 20 M0 20 C-2.53 3.21, 9.63 1.69, 20 0 M0 20 C3.72 10.08, 2.86 1.17, 20 0" stroke="#2f9e44" stroke-width="2" fill="none"></path></g><g transform="translate(192.26337369584144 945.9600888776858) rotate(0 92.02733364105188 17.5)"><text x="92.02733364105225" y="24.668" font-family="Virgil, Segoe UI Emoji" font-size="28px" fill="#2f9e44" text-anchor="middle" style="white-space: pre;" direction="ltr" dominant-baseline="alphabetic">Load routers</text></g><g stroke-linecap="round" transform="translate(113.61285878385024 805.8927209916692) rotate(0 169.45600740949703 32.98571136597093)"><path d="M16.49 0 C80.48 4.91, 152.38 6, 322.42 0 M16.49 0 C103.02 -3.05, 187.03 -1.79, 322.42 0 M322.42 0 C329.49 1.27, 335.54 6.89, 338.91 16.49 M322.42 0 C331.89 2.14, 340.92 1.13, 338.91 16.49 M338.91 16.49 C335.36 26.9, 339.75 33.74, 338.91 49.48 M338.91 16.49 C340.14 23.83, 339.51 31.05, 338.91 49.48 M338.91 49.48 C335.16 61.59, 335.43 66.69, 322.42 65.97 M338.91 49.48 C341.54 57.42, 329.06 69.32, 322.42 65.97 M322.42 65.97 C213.68 60.71, 109.98 59.03, 16.49 65.97 M322.42 65.97 C215.71 64.51, 109.59 67.34, 16.49 65.97 M16.49 65.97 C5 62.32, -3.01 57.97, 0 49.48 M16.49 65.97 C3.03 64.22, -3.56 62.26, 0 49.48 M0 49.48 C-1.26 38.53, 1.05 26.61, 0 16.49 M0 49.48 C-0.38 42.12, 0.49 34.03, 0 16.49 M0 16.49 C-1.48 4, 6.34 2.63, 16.49 0 M0 16.49 C3.82 9.54, 5.91 -2.53, 16.49 0" stroke="#1971c2" stroke-width="2" fill="none"></path></g><g transform="translate(155.3188661933491 821.3784323576401) rotate(0 127.75 17.5)"><text x="127.75" y="24.668" font-family="Virgil, Segoe UI Emoji" font-size="28px" fill="#1971c2" text-anchor="middle" style="white-space: pre;" direction="ltr" dominant-baseline="alphabetic">$beforeRoutesInit</text></g><g stroke-linecap="round" transform="translate(114.83469992741084 1054.570508181123) rotate(0 169.45600740949703 32.98571136597093)"><path d="M16.49 0 C92.81 1.4, 162.75 5.31, 322.42 0 M16.49 0 C125.98 1.7, 239.39 1.73, 322.42 0 M322.42 0 C332.37 -1.79, 337.04 9.37, 338.91 16.49 M322.42 0 C337.9 3.03, 341.4 3.81, 338.91 16.49 M338.91 16.49 C335.57 26.48, 339.83 32.42, 338.91 49.48 M338.91 16.49 C337.77 24.39, 340.5 34.47, 338.91 49.48 M338.91 49.48 C340.38 60.04, 330.79 63.61, 322.42 65.97 M338.91 49.48 C335.09 59.7, 333.01 66.3, 322.42 65.97 M322.42 65.97 C249.07 64.69, 173.16 69.69, 16.49 65.97 M322.42 65.97 C240.68 69.14, 160.09 70.53, 16.49 65.97 M16.49 65.97 C9.45 67.71, -3.97 63.7, 0 49.48 M16.49 65.97 C3.69 69.1, -2.54 59.9, 0 49.48 M0 49.48 C-3.54 42.75, -2.45 33.2, 0 16.49 M0 49.48 C0.83 40.09, 2.28 31.66, 0 16.49 M0 16.49 C1.07 8.4, 5.62 -2.56, 16.49 0 M0 16.49 C-1.68 1.17, 2.46 -2.06, 16.49 0" stroke="#1971c2" stroke-width="2" fill="none"></path></g><g transform="translate(185.24070428514824 1070.0562195470939) rotate(0 99.05000305175781 17.5)"><text x="99.05000305175781" y="24.668" font-family="Virgil, Segoe UI Emoji" font-size="28px" fill="#1971c2" text-anchor="middle" style="white-space: pre;" direction="ltr" dominant-baseline="alphabetic">$onRoutesInit</text></g><g stroke-linecap="round" transform="translate(114.33559586666888 1180.1392694363458) rotate(0 169.45600740949703 32.98571136597093)"><path d="M16.49 0 C88.09 -1.51, 165.1 -0.37, 322.42 0 M16.49 0 C94.52 -0.05, 175.88 -0.03, 322.42 0 M322.42 0 C330.25 2.85, 334.98 9.27, 338.91 16.49 M322.42 0 C333.71 -2.97, 338.13 5.3, 338.91 16.49 M338.91 16.49 C336.67 27.86, 342.32 39.69, 338.91 49.48 M338.91 16.49 C339.82 26.31, 339.27 32, 338.91 49.48 M338.91 49.48 C341.44 59.93, 334.03 66.64, 322.42 65.97 M338.91 49.48 C334.85 61.76, 336.14 66.5, 322.42 65.97 M322.42 65.97 C245.92 61.19, 173.67 63.61, 16.49 65.97 M322.42 65.97 C256.94 66.97, 188.77 66.83, 16.49 65.97 M16.49 65.97 C9.08 65.48, 3.96 60.49, 0 49.48 M16.49 65.97 C2.08 63.84, -2.94 57.23, 0 49.48 M0 49.48 C1.62 36.57, -0.16 30.32, 0 16.49 M0 49.48 C0 37.32, -1.71 28.25, 0 16.49 M0 16.49 C-1.37 2.67, 5.6 -1.4, 16.49 0 M0 16.49 C3.83 5.4, 2.41 -4.58, 16.49 0" stroke="#1971c2" stroke-width="2" fill="none"></path></g><g transform="translate(161.30827350321488 1195.6249808023167) rotate(0 122.48332977294922 17.5)"><text x="122.48332977294922" y="24.668" font-family="Virgil, Segoe UI Emoji" font-size="28px" fill="#1971c2" text-anchor="middle" style="white-space: pre;" direction="ltr" dominant-baseline="alphabetic">$afterRoutesInit</text></g><g stroke-linecap="round" transform="translate(12.942786347834044 1574.9807089210663) rotate(0 515.599187858601 267.7760086955841)"><path d="M32 0 C239.58 -2.2, 448.63 -1.37, 999.2 0 M999.2 0 C1019.28 1.93, 1032.29 11.84, 1031.2 32 M1031.2 32 C1032.97 141.45, 1032.45 250.05, 1031.2 503.55 M1031.2 503.55 C1029.71 526.02, 1022.28 534.78, 999.2 535.55 M999.2 535.55 C665.5 532.33, 332.81 532.72, 32 535.55 M32 535.55 C11.43 535.58, -0.15 526.27, 0 503.55 M0 503.55 C-1.22 351.35, -0.63 199.84, 0 32 M0 32 C-1.52 11.09, 10.2 -0.89, 32 0" stroke="#1e1e1e" stroke-width="1.5" fill="none" stroke-dasharray="8 9"></path></g><g transform="translate(47.82479251593759 1514.574381260687) rotate(0 157.5313332557671 17.5)"><text x="0" y="24.668" font-family="Virgil, Segoe UI Emoji" font-size="28px" fill="#1e1e1e" text-anchor="start" style="white-space: pre;" direction="ltr" dominant-baseline="alphabetic">PlatformBuilder.listen()</text></g><g stroke-linecap="round" transform="translate(90.66272069643674 1618.277877364846) rotate(0 169.45600740949703 32.98571136597093)"><path d="M16.49 0 C130.75 -3.3, 249.6 -0.54, 322.42 0 M16.49 0 C126.92 -3.49, 238.57 -5.57, 322.42 0 M322.42 0 C334.8 0.32, 336.75 3.52, 338.91 16.49 M322.42 0 C331.91 -3.31, 343.07 5.4, 338.91 16.49 M338.91 16.49 C338.93 24.03, 335.26 37.6, 338.91 49.48 M338.91 16.49 C337.23 28.51, 340.29 39.38, 338.91 49.48 M338.91 49.48 C341.66 62.57, 333.62 69.28, 322.42 65.97 M338.91 49.48 C336.75 57.24, 336.32 67.87, 322.42 65.97 M322.42 65.97 C208.32 62.76, 97.17 66.47, 16.49 65.97 M322.42 65.97 C260.8 68.86, 199.4 67.95, 16.49 65.97 M16.49 65.97 C7.34 62.03, -0.51 60.51, 0 49.48 M16.49 65.97 C9.84 70.37, -1.04 56.97, 0 49.48 M0 49.48 C3.76 40.26, -1.13 30.85, 0 16.49 M0 49.48 C-0.79 35.81, -1.62 25.62, 0 16.49 M0 16.49 C-1.43 8.62, 4.47 3.75, 16.49 0 M0 16.49 C2.65 4.58, 4.75 3.02, 16.49 0" stroke="#1971c2" stroke-width="2" fill="none"></path></g><g transform="translate(164.43672813645026 1633.763588730817) rotate(0 95.6819999694817 17.5)"><text x="95.68199996948242" y="24.668" font-family="Virgil, Segoe UI Emoji" font-size="28px" fill="#1971c2" text-anchor="middle" style="white-space: pre;" direction="ltr" dominant-baseline="alphabetic">$beforeListen</text></g><g stroke-linecap="round" transform="translate(94.70915504235745 1744.2464185241352) rotate(0 169.45600740949703 40)"><path d="M20 0 C101.27 -1.91, 181.04 -4.59, 318.91 0 M20 0 C111.22 -3.21, 206.47 -3.7, 318.91 0 M318.91 0 C332.39 -3.74, 342.19 4.92, 338.91 20 M318.91 0 C328.57 -3.36, 338.34 10.12, 338.91 20 M338.91 20 C336.1 30.68, 340.25 40.47, 338.91 60 M338.91 20 C338.48 27.18, 339.69 38.81, 338.91 60 M338.91 60 C341.28 76.03, 335.6 78.67, 318.91 80 M338.91 60 C338.32 69.18, 333.6 80.6, 318.91 80 M318.91 80 C247.94 83.48, 174.23 81.68, 20 80 M318.91 80 C233.32 82.42, 146.36 83.06, 20 80 M20 80 C3.57 77.69, -0.52 73.78, 0 60 M20 80 C8.79 80.01, 2.34 72.65, 0 60 M0 60 C1.27 52.06, -2.43 44.44, 0 20 M0 60 C1.07 52.54, -1.21 40.06, 0 20 M0 20 C-1.86 5.68, 7.36 -3.25, 20 0 M0 20 C4.08 2.59, 2.49 4.08, 20 0" stroke="#2f9e44" stroke-width="2" fill="none"></path></g><g transform="translate(154.47116214413472 1749.2464185241352) rotate(0 109.69400030771976 35)"><text x="109.69400030771891" y="24.668" font-family="Virgil, Segoe UI Emoji" font-size="28px" fill="#2f9e44" text-anchor="middle" style="white-space: pre;" direction="ltr" dominant-baseline="alphabetic">Bind http/https</text><text x="109.69400030771891" y="59.668" font-family="Virgil, Segoe UI Emoji" font-size="28px" fill="#2f9e44" text-anchor="middle" style="white-space: pre;" direction="ltr" dominant-baseline="alphabetic">Servers</text></g><g stroke-linecap="round" transform="translate(99.49107973989885 1866.6125991980898) rotate(0 169.45600740949703 32.98571136597093)"><path d="M16.49 0 C128.54 0.74, 239.35 1.18, 322.42 0 M16.49 0 C90.18 4.02, 162.59 4.77, 322.42 0 M322.42 0 C333.43 2.61, 341.64 7.58, 338.91 16.49 M322.42 0 C330.01 4.08, 342.34 0.93, 338.91 16.49 M338.91 16.49 C336.64 28.06, 335.59 31.85, 338.91 49.48 M338.91 16.49 C338.14 23.59, 339.08 34.33, 338.91 49.48 M338.91 49.48 C337.3 59.56, 334.42 66.57, 322.42 65.97 M338.91 49.48 C336.32 59.63, 333.7 68.86, 322.42 65.97 M322.42 65.97 C237.74 67.07, 153.55 63.96, 16.49 65.97 M322.42 65.97 C210.69 62.11, 100.11 62.47, 16.49 65.97 M16.49 65.97 C5.58 66.45, -2.38 58.05, 0 49.48 M16.49 65.97 C5.1 67.29, -2.9 61.57, 0 49.48 M0 49.48 C-4.27 39.48, -1.81 35.17, 0 16.49 M0 49.48 C0.46 35.76, -0.64 21.82, 0 16.49 M0 16.49 C3.26 2.3, 6.84 -1.57, 16.49 0 M0 16.49 C2.52 7.73, 1.71 -0.57, 16.49 0" stroke="#1971c2" stroke-width="2" fill="none"></path></g><g transform="translate(178.5317538465788 1882.0983105640607) rotate(0 90.41533330281527 17.5)"><text x="90.41533330281575" y="24.668" font-family="Virgil, Segoe UI Emoji" font-size="28px" fill="#1971c2" text-anchor="middle" style="white-space: pre;" direction="ltr" dominant-baseline="alphabetic">$afterListen</text></g><g stroke-linecap="round" transform="translate(96.54829339207572 1996.6655328103589) rotate(0 169.45600740949703 32.98571136597093)"><path d="M16.49 0 C133.5 -0.47, 248.3 0.35, 322.42 0 M16.49 0 C111.18 -0.27, 203.01 1.28, 322.42 0 M322.42 0 C332.32 -1.39, 335.02 2.5, 338.91 16.49 M322.42 0 C337.36 1.93, 339.23 5.84, 338.91 16.49 M338.91 16.49 C336.42 24.4, 342 37.65, 338.91 49.48 M338.91 16.49 C339.63 26.29, 337.9 37.1, 338.91 49.48 M338.91 49.48 C335.05 60.93, 332 66.45, 322.42 65.97 M338.91 49.48 C342.13 59.14, 333.18 63.16, 322.42 65.97 M322.42 65.97 C206.61 65.28, 87.47 62.4, 16.49 65.97 M322.42 65.97 C216.38 64.38, 109.76 64.57, 16.49 65.97 M16.49 65.97 C2.79 68.88, -3.62 60.22, 0 49.48 M16.49 65.97 C6.34 62.63, 1.17 59.74, 0 49.48 M0 49.48 C0.18 39.77, -1.15 30.99, 0 16.49 M0 49.48 C-1.74 35.34, -1.85 26.21, 0 16.49 M0 16.49 C-3.32 7.37, 3.9 2.08, 16.49 0 M0 16.49 C0.9 9.07, 3.31 -0.32, 16.49 0" stroke="#1971c2" stroke-width="2" fill="none"></path></g><g transform="translate(198.44696745933834 2012.1512441763298) rotate(0 67.55733334223441 17.5)"><text x="67.55733334223429" y="24.668" font-family="Virgil, Segoe UI Emoji" font-size="28px" fill="#1971c2" text-anchor="middle" style="white-space: pre;" direction="ltr" dominant-baseline="alphabetic">$onReady</text></g><g stroke-linecap="round" transform="translate(107.3928095188603 666.5766555745995) rotate(0 169.45600740949703 40)"><path d="M20 0 C98.91 3.12, 177.38 2, 318.91 0 M20 0 C85.93 1.8, 154.01 1.17, 318.91 0 M318.91 0 C333.31 -3.03, 339.19 2.76, 338.91 20 M318.91 0 C334.51 0.77, 342.99 10.4, 338.91 20 M338.91 20 C342.45 26, 342.97 37.16, 338.91 60 M338.91 20 C340.61 33.22, 339.87 44.55, 338.91 60 M338.91 60 C342.35 69.96, 334.93 83.61, 318.91 80 M338.91 60 C338.58 68.81, 330.28 77.88, 318.91 80 M318.91 80 C220.91 75.84, 121.78 79.58, 20 80 M318.91 80 C210.76 79.99, 98.92 81.28, 20 80 M20 80 C6.23 81.58, -2.23 77.27, 0 60 M20 80 C5.73 84.2, 2.25 69.32, 0 60 M0 60 C-1.06 47.46, 2.69 36.32, 0 20 M0 60 C1.04 44.24, 0.57 26.7, 0 20 M0 20 C2.57 6.18, 8.72 3.37, 20 0 M0 20 C0.33 2.46, 8.75 -2.47, 20 0" stroke="#2f9e44" stroke-width="2" fill="none"></path></g><g transform="translate(164.3821497530662 671.5766555745995) rotate(0 112.46666717529297 35)"><text x="112.46666717529297" y="24.668" font-family="Virgil, Segoe UI Emoji" font-size="28px" fill="#2f9e44" text-anchor="middle" style="white-space: pre;" direction="ltr" dominant-baseline="alphabetic">add DI Context</text><text x="112.46666717529297" y="59.668" font-family="Virgil, Segoe UI Emoji" font-size="28px" fill="#2f9e44" text-anchor="middle" style="white-space: pre;" direction="ltr" dominant-baseline="alphabetic">middleware</text></g><g stroke-linecap="round" transform="translate(108.94912723177185 1303.578631807939) rotate(0 169.45600740949703 40)"><path d="M20 0 C134.22 0.66, 244.41 -3.27, 318.91 0 M20 0 C78.64 -1.97, 140.31 -3.04, 318.91 0 M318.91 0 C331.02 4, 335.84 8.47, 338.91 20 M318.91 0 C333.25 -2.72, 336.9 4.12, 338.91 20 M338.91 20 C341.34 38.26, 336.9 48.26, 338.91 60 M338.91 20 C340.66 37.63, 338.76 53.42, 338.91 60 M338.91 60 C341.45 74.64, 329.07 81.5, 318.91 80 M338.91 60 C335.41 76.77, 328.73 84.23, 318.91 80 M318.91 80 C242.17 78.24, 169.72 76.92, 20 80 M318.91 80 C248.56 82.21, 181.53 82.97, 20 80 M20 80 C9.08 78.43, -3.98 69.6, 0 60 M20 80 C3.95 78.31, 4.21 71.91, 0 60 M0 60 C-1.84 53.49, 2.24 42.07, 0 20 M0 60 C-1.77 48.15, 1.57 36.73, 0 20 M0 20 C2.3 2.94, 8.44 -2.36, 20 0 M0 20 C1.8 9.48, 2.58 4.42, 20 0" stroke="#2f9e44" stroke-width="2" fill="none"></path></g><g transform="translate(172.10246743672906 1308.578631807939) rotate(0 106.30266720453983 35)"><text x="106.30266720453898" y="24.668" font-family="Virgil, Segoe UI Emoji" font-size="28px" fill="#2f9e44" text-anchor="middle" style="white-space: pre;" direction="ltr" dominant-baseline="alphabetic">map routers to</text><text x="106.30266720453898" y="59.668" font-family="Virgil, Segoe UI Emoji" font-size="28px" fill="#2f9e44" text-anchor="middle" style="white-space: pre;" direction="ltr" dominant-baseline="alphabetic">Application</text></g><g stroke-linecap="round" transform="translate(10 2234.6507484945087) rotate(0 515.599187858601 97.3191375652541)"><path d="M32 0 C236.3 0.5, 440.5 0.2, 999.2 0 M999.2 0 C1020.57 0.71, 1029.24 10.6, 1031.2 32 M1031.2 32 C1030.44 69.36, 1031.86 106.85, 1031.2 162.64 M1031.2 162.64 C1031.09 184.55, 1020.92 195.14, 999.2 194.64 M999.2 194.64 C689.21 191.4, 377.25 192.15, 32 194.64 M32 194.64 C9.49 195.68, 1.54 184.16, 0 162.64 M0 162.64 C1.47 126.55, -0.6 91.47, 0 32 M0 32 C-0.23 9.19, 8.88 -1.37, 32 0" stroke="#1e1e1e" stroke-width="1.5" fill="none" stroke-dasharray="8 9"></path></g><g transform="translate(44.882006168103544 2177.816895630318) rotate(0 151.24799992243425 17.5)"><text x="0" y="24.668" font-family="Virgil, Segoe UI Emoji" font-size="28px" fill="#1e1e1e" text-anchor="start" style="white-space: pre;" direction="ltr" dominant-baseline="alphabetic">PlatformBuilder.stop()</text></g><g stroke-linecap="round" transform="translate(92.67308302409947 2294.1016503940446) rotate(0 169.45600740949703 32.98571136597093)"><path d="M16.49 0 C115.34 1.64, 211.23 0.52, 322.42 0 M16.49 0 C105.28 -3.28, 196.29 -3.96, 322.42 0 M322.42 0 C333.2 1.16, 339.69 6.5, 338.91 16.49 M322.42 0 C334.39 2.65, 335.62 8.92, 338.91 16.49 M338.91 16.49 C335.91 26.56, 341.34 32.84, 338.91 49.48 M338.91 16.49 C340.29 24.33, 338.22 33.19, 338.91 49.48 M338.91 49.48 C338.45 57.53, 329.85 63.23, 322.42 65.97 M338.91 49.48 C342.69 60.15, 329.82 66.8, 322.42 65.97 M322.42 65.97 C223.37 68.7, 126.09 70.07, 16.49 65.97 M322.42 65.97 C221.67 66.85, 123.12 65.79, 16.49 65.97 M16.49 65.97 C4.6 62.78, 3.04 61.27, 0 49.48 M16.49 65.97 C5.13 68.25, -2.93 59.32, 0 49.48 M0 49.48 C2.54 36.62, -1.75 30.89, 0 16.49 M0 49.48 C-0.01 37.69, 1.3 28.19, 0 16.49 M0 16.49 C2.03 4.56, 4.25 -2.35, 16.49 0 M0 16.49 C3.24 8.35, 8.11 2.97, 16.49 0" stroke="#1e1e1e" stroke-width="2" fill="none"></path></g><g transform="translate(134.27575717496802 2309.5873617600155) rotate(0 127.85333325862848 17.5)"><text x="127.85333325862884" y="24.668" font-family="Virgil, Segoe UI Emoji" font-size="28px" fill="#1e1e1e" text-anchor="middle" style="white-space: pre;" direction="ltr" dominant-baseline="alphabetic">injector().destroy()</text></g><g stroke-linecap="round" transform="translate(635.3415440889075 2295.78578480157) rotate(0 169.45600740949703 32.98571136597093)"><path d="M16.49 0 C126.21 1.47, 237.85 2.52, 322.42 0 M16.49 0 C129.3 -1.18, 239.43 -0.16, 322.42 0 M322.42 0 C332.59 -0.04, 341.74 2.8, 338.91 16.49 M322.42 0 C329.95 3.32, 341.7 5.37, 338.91 16.49 M338.91 16.49 C337.79 26.63, 336.74 32.55, 338.91 49.48 M338.91 16.49 C337.59 23.02, 337.91 32.59, 338.91 49.48 M338.91 49.48 C339.3 63.22, 335.33 65.02, 322.42 65.97 M338.91 49.48 C341.64 56.43, 334.45 63.5, 322.42 65.97 M322.42 65.97 C230.71 65.99, 139.52 66.61, 16.49 65.97 M322.42 65.97 C239.87 68.02, 156.53 69.58, 16.49 65.97 M16.49 65.97 C6.96 67, -3.83 61.9, 0 49.48 M16.49 65.97 C1.31 65.65, -0.53 58.55, 0 49.48 M0 49.48 C0.08 34.88, -1.17 23.99, 0 16.49 M0 49.48 C0.38 41.17, 1.12 36.88, 0 16.49 M0 16.49 C3.67 1.86, 7.74 -3.39, 16.49 0 M0 16.49 C-1.2 4.79, 7.49 3.15, 16.49 0" stroke="#1971c2" stroke-width="2" fill="none"></path></g><g transform="translate(723.8402181561687 2311.271496167541) rotate(0 80.95733334223405 17.5)"><text x="80.95733334223429" y="24.668" font-family="Virgil, Segoe UI Emoji" font-size="28px" fill="#1971c2" text-anchor="middle" style="white-space: pre;" direction="ltr" dominant-baseline="alphabetic">$onDestroy</text></g><g stroke-linecap="round"><g transform="translate(449.6677861952885 2328.8915689221667) rotate(0 85.03696530090201 0.060249922491493635)"><path d="M-0.83 0.76 C26.99 0.58, 139.33 -0.8, 168.12 -0.97 M3.91 -1.3 C32.52 -1.1, 145.59 1.41, 173.47 2.07" stroke="#1e1e1e" stroke-width="1" fill="none"></path></g><g transform="translate(449.6677861952885 2328.8915689221667) rotate(0 85.03696530090201 0.060249922491493635)"><path d="M150.33 8.7 C157.12 8.76, 165.76 6.63, 174.81 2.29 M149.73 10.01 C156.81 7.04, 165.39 4.11, 173.74 2.59" stroke="#1e1e1e" stroke-width="1" fill="none"></path></g><g transform="translate(449.6677861952885 2328.8915689221667) rotate(0 85.03696530090201 0.060249922491493635)"><path d="M150.72 -8.4 C157.38 -2.48, 165.89 1.25, 174.81 2.29 M150.12 -7.09 C157 -4.31, 165.46 -1.48, 173.74 2.59" stroke="#1e1e1e" stroke-width="1" fill="none"></path></g></g><mask></mask><g stroke-linecap="round"><g transform="translate(269.5767755978304 367.51993443478204) rotate(0 0 16.128111260866717)"><path d="M-0.67 -0.94 C-0.53 4.54, 0.49 26.74, 0.71 32.22 M1.18 1.17 C1.24 6.92, 0.3 28.41, 0.13 33.74" stroke="#1e1e1e" stroke-width="1" fill="none"></path></g><g transform="translate(269.5767755978304 367.51993443478204) rotate(0 0 16.128111260866717)"><path d="M-6.08 19.34 C-3.53 23.66, -2.42 27.46, 0.88 32.26 M-5.56 18.49 C-2.89 23.62, -1.09 30.29, -0.51 33.29" stroke="#1e1e1e" stroke-width="1" fill="none"></path></g><g transform="translate(269.5767755978304 367.51993443478204) rotate(0 0 16.128111260866717)"><path d="M4.94 19.76 C4.33 23.9, 2.26 27.58, 0.88 32.26 M5.47 18.91 C4.07 23.97, 1.8 30.49, -0.51 33.29" stroke="#1e1e1e" stroke-width="1" fill="none"></path></g></g><mask></mask><g stroke-linecap="round"><g transform="translate(272.62365640678036 489.5327446626179) rotate(0 0 19.939055255144922)"><path d="M-1.05 -0.34 C-1.41 6.26, -1.18 34.11, -1.01 40.66 M0.6 -1.57 C0.5 5.22, 1.41 32.06, 1.18 38.95" stroke="#1e1e1e" stroke-width="1" fill="none"></path></g><g transform="translate(272.62365640678036 489.5327446626179) rotate(0 0 19.939055255144922)"><path d="M-6.29 18.57 C-1.52 27.72, -1.6 33.81, 2.67 40.15 M-5.83 20.8 C-3.44 24.42, -3.38 28.22, 2.05 39.15" stroke="#1e1e1e" stroke-width="1" fill="none"></path></g><g transform="translate(272.62365640678036 489.5327446626179) rotate(0 0 19.939055255144922)"><path d="M7.35 18.52 C6.7 27.57, 1.19 33.68, 2.67 40.15 M7.81 20.75 C7.2 24.42, 4.25 28.24, 2.05 39.15" stroke="#1e1e1e" stroke-width="1" fill="none"></path></g></g><mask></mask><g stroke-linecap="round"><g transform="translate(273.00248909130096 617.6082850304629) rotate(0 -0.9880163354882825 22.18837424749381)"><path d="M-0.05 1.02 C-0.68 8.42, -2.68 37.34, -2.88 44.73 M-1.54 0.51 C-1.87 7.51, -0.63 35.62, -0.65 42.8" stroke="#1e1e1e" stroke-width="1" fill="none"></path></g><g transform="translate(273.00248909130096 617.6082850304629) rotate(0 -0.9880163354882825 22.18837424749381)"><path d="M-7.02 20.59 C-5.07 31.01, -0.97 37, 0.41 41.07 M-8.7 22.6 C-4.98 28.36, -4.25 35.2, -1.05 41.87" stroke="#1e1e1e" stroke-width="1" fill="none"></path></g><g transform="translate(273.00248909130096 617.6082850304629) rotate(0 -0.9880163354882825 22.18837424749381)"><path d="M8.17 20.25 C4.47 30.78, 2.92 36.91, 0.41 41.07 M6.49 22.26 C5.4 28.18, 1.32 35.13, -1.05 41.87" stroke="#1e1e1e" stroke-width="1" fill="none"></path></g></g><mask></mask><g stroke-linecap="round"><g transform="translate(277.2932372304822 758.0113967872621) rotate(0 0.23842149010852154 19.98385711112587)"><path d="M0.04 0.91 C0.17 7.52, 0.99 34.44, 0.99 40.79 M-1.4 0.34 C-1.4 7.13, 0.23 32.53, 0.32 39.1" stroke="#1e1e1e" stroke-width="1" fill="none"></path></g><g transform="translate(277.2932372304822 758.0113967872621) rotate(0 0.23842149010852154 19.98385711112587)"><path d="M-5.77 21.47 C-3.33 25.83, -3.93 33.87, -0.72 39.9 M-6.34 21.2 C-3.63 26.66, -2.26 34.98, -0.61 39.39" stroke="#1e1e1e" stroke-width="1" fill="none"></path></g><g transform="translate(277.2932372304822 758.0113967872621) rotate(0 0.23842149010852154 19.98385711112587)"><path d="M7.89 20.92 C5.99 25.45, 1.04 33.67, -0.72 39.9 M7.32 20.64 C5.06 26.37, 1.45 34.89, -0.61 39.39" stroke="#1e1e1e" stroke-width="1" fill="none"></path></g></g><mask></mask><g stroke-linecap="round"><g transform="translate(278.8696506000997 879.6490628683769) rotate(0 0.13071399332147848 17.599271396759832)"><path d="M0.94 -0.05 C1.25 5.67, 1.09 28.52, 0.93 34.37 M-0.02 -1.12 C0.26 4.73, 0.48 29.24, 0.33 35.48" stroke="#1e1e1e" stroke-width="1" fill="none"></path></g><g transform="translate(278.8696506000997 879.6490628683769) rotate(0 0.13071399332147848 17.599271396759832)"><path d="M-5.68 19.89 C-5.47 22.22, -3.09 25.33, 0.71 34.1 M-5.35 19.32 C-3.42 24.9, -0.71 30.52, -0.47 35.19" stroke="#1e1e1e" stroke-width="1" fill="none"></path></g><g transform="translate(278.8696506000997 879.6490628683769) rotate(0 0.13071399332147848 17.599271396759832)"><path d="M6.35 19.95 C3.84 22.35, 3.49 25.45, 0.71 34.1 M6.69 19.38 C4.41 24.9, 2.9 30.5, -0.47 35.19" stroke="#1e1e1e" stroke-width="1" fill="none"></path></g></g><mask></mask><g stroke-linecap="round"><g transform="translate(279.61461105776834 1013.0722774921669) rotate(0 -0.5604944367787539 17.540174824032874)"><path d="M0.36 0.97 C0.33 6.81, 0.14 30.18, -0.12 35.82 M-0.91 0.43 C-1.01 5.87, -0.35 28.15, -0.55 34.08" stroke="#1e1e1e" stroke-width="1" fill="none"></path></g><g transform="translate(279.61461105776834 1013.0722774921669) rotate(0 -0.5604944367787539 17.540174824032874)"><path d="M-5.16 19.06 C-3.55 22.43, -3.18 26.83, 0.75 35.08 M-6.58 18.2 C-4.21 22.64, -3.1 26.88, -0.55 34" stroke="#1e1e1e" stroke-width="1" fill="none"></path></g><g transform="translate(279.61461105776834 1013.0722774921669) rotate(0 -0.5604944367787539 17.540174824032874)"><path d="M6.85 19.04 C4.79 22.45, 1.49 26.86, 0.75 35.08 M5.43 18.18 C4.59 22.56, 2.49 26.81, -0.55 34" stroke="#1e1e1e" stroke-width="1" fill="none"></path></g></g><mask></mask><g stroke-linecap="round"><g transform="translate(279.5005331897628 1129.8225787330593) rotate(0 0.5929218062738073 20.29929495228862)"><path d="M-0.62 -0.18 C-0.42 6.36, 0.69 32.92, 1.11 39.89 M1.25 -1.32 C1.3 5.3, 0.09 34.19, 0.13 41.05" stroke="#1e1e1e" stroke-width="1" fill="none"></path></g><g transform="translate(279.5005331897628 1129.8225787330593) rotate(0 0.5929218062738073 20.29929495228862)"><path d="M-6.71 21.7 C-5.59 28.6, -0.74 34.04, 1.47 40.33 M-5.6 21.28 C-4.42 28.89, -0.66 36.53, -0.54 40.85" stroke="#1e1e1e" stroke-width="1" fill="none"></path></g><g transform="translate(279.5005331897628 1129.8225787330593) rotate(0 0.5929218062738073 20.29929495228862)"><path d="M7.18 22 C4.27 28.74, 5.1 34.1, 1.47 40.33 M8.29 21.58 C4.11 29.12, 2.52 36.63, -0.54 40.85" stroke="#1e1e1e" stroke-width="1" fill="none"></path></g></g><mask></mask><g stroke-linecap="round"><g transform="translate(279.66653649938235 1256.505712488868) rotate(0 -0.2753073834992392 18.880209113031924)"><path d="M-1.16 -0.57 C-1.26 5.4, -0.35 30.41, -0.35 36.92 M0.43 1.75 C0.17 8.37, -0.74 32.22, -1.19 38.01" stroke="#1e1e1e" stroke-width="1" fill="none"></path></g><g transform="translate(279.66653649938235 1256.505712488868) rotate(0 -0.2753073834992392 18.880209113031924)"><path d="M-7.57 20.27 C-6.08 24.85, -1.86 32.77, -1.94 37.79 M-7.05 20.05 C-6.22 24.12, -4.7 28.41, -1.71 38.73" stroke="#1e1e1e" stroke-width="1" fill="none"></path></g><g transform="translate(279.66653649938235 1256.505712488868) rotate(0 -0.2753073834992392 18.880209113031924)"><path d="M5.33 20.97 C2.68 25.2, 2.77 32.9, -1.94 37.79 M5.85 20.75 C3.8 24.69, 2.43 28.82, -1.71 38.73" stroke="#1e1e1e" stroke-width="1" fill="none"></path></g></g><mask></mask><g stroke-linecap="round"><g transform="translate(263.7879304514245 1695.0586747747093) rotate(0 0 17.93750251070287)"><path d="M-0.74 -1.14 C-0.55 5.12, 0.48 30.55, 0.71 36.58 M1.07 0.88 C1.21 6.88, 0.28 28.99, 0.14 34.83" stroke="#1e1e1e" stroke-width="1" fill="none"></path></g><g transform="translate(263.7879304514245 1695.0586747747093) rotate(0 0 17.93750251070287)"><path d="M-7.14 18.84 C-3.06 23.27, -3.95 25.42, -0.98 35.63 M-5.64 17.27 C-2.3 24.76, -0.32 31.76, 0.48 35.21" stroke="#1e1e1e" stroke-width="1" fill="none"></path></g><g transform="translate(263.7879304514245 1695.0586747747093) rotate(0 0 17.93750251070287)"><path d="M5.12 19.24 C5.99 23.49, 1.89 25.54, -0.98 35.63 M6.62 17.67 C5.15 25.09, 2.32 31.94, 0.48 35.21" stroke="#1e1e1e" stroke-width="1" fill="none"></path></g></g><mask></mask><g stroke-linecap="round"><g transform="translate(263.7879304513881 1836.3256185306054) rotate(0 0.39761455129519163 11.055815231088673)"><path d="M-1.11 -0.33 C-0.93 3.59, 0.47 19.48, 0.9 23.05 M0.51 -1.55 C0.55 2.09, -0.08 17.52, 0 21.41" stroke="#1e1e1e" stroke-width="1" fill="none"></path></g><g transform="translate(263.7879304513881 1836.3256185306054) rotate(0 0.39761455129519163 11.055815231088673)"><path d="M-3.94 11.06 C-1.78 14.57, -2.59 16.77, -0.25 21.55 M-3.33 11.16 C-2.77 13.92, -2.36 16.4, 0.43 21.18" stroke="#1e1e1e" stroke-width="1" fill="none"></path></g><g transform="translate(263.7879304513881 1836.3256185306054) rotate(0 0.39761455129519163 11.055815231088673)"><path d="M3.62 11.16 C3.62 14.57, 0.64 16.74, -0.25 21.55 M4.24 11.26 C2.85 14, 1.3 16.46, 0.43 21.18" stroke="#1e1e1e" stroke-width="1" fill="none"></path></g></g><mask></mask><g stroke-linecap="round"><g transform="translate(267.09887444566994 1942.3144968478373) rotate(0 0 19.59941959122989)"><path d="M-0.28 0.88 C-0.03 7.55, 0.86 32.6, 0.92 38.86 M1.77 0.29 C2 7.25, 0.85 33.71, 0.45 40.23" stroke="#1e1e1e" stroke-width="1" fill="none"></path></g><g transform="translate(267.09887444566994 1942.3144968478373) rotate(0 0 19.59941959122989)"><path d="M-3.9 23 C-4.62 26.34, -3.83 29, 0.19 39.82 M-6.21 20.8 C-3.3 25.02, -2.28 28.48, 0.18 40.05" stroke="#1e1e1e" stroke-width="1" fill="none"></path></g><g transform="translate(267.09887444566994 1942.3144968478373) rotate(0 0 19.59941959122989)"><path d="M9.49 23.66 C5.43 26.8, 2.87 29.29, 0.19 39.82 M7.18 21.46 C7.4 25.46, 5.74 28.79, 0.18 40.05" stroke="#1e1e1e" stroke-width="1" fill="none"></path></g></g><mask></mask><g transform="translate(518.956092902441 951.0716713744678) rotate(0 209.26333325703854 12.5)"><text x="0" y="17.619999999999997" font-family="Excalifont, Xiaolai, Segoe UI Emoji" font-size="20px" fill="#1e1e1e" text-anchor="start" style="white-space: pre;" direction="ltr" dominant-baseline="alphabetic">Attach routers to each Ts.ED controllers.</text></g><g transform="translate(515.1772889694803 1317.6156528734427) rotate(0 228.8000030517578 25)"><text x="0" y="17.619999999999997" font-family="Excalifont, Xiaolai, Segoe UI Emoji" font-size="20px" fill="#1e1e1e" text-anchor="start" style="white-space: pre;" direction="ltr" dominant-baseline="alphabetic">At this step Express.js/Koa.js have all Ts.ED </text><text x="0" y="42.62" font-family="Excalifont, Xiaolai, Segoe UI Emoji" font-size="20px" fill="#1e1e1e" text-anchor="start" style="white-space: pre;" direction="ltr" dominant-baseline="alphabetic">routes registered.</text></g><g transform="translate(537.8501125673829 433.37553255634884) rotate(0 80.07666644255369 12.5)"><text x="0" y="17.619999999999997" font-family="Excalifont, Xiaolai, Segoe UI Emoji" font-size="20px" fill="#1e1e1e" text-anchor="start" style="white-space: pre;" direction="ltr" dominant-baseline="alphabetic">See DI Lifecycle</text></g></svg>