<svg width="784" height="227" viewBox="0 0 784 227" fill="none" xmlns="http://www.w3.org/2000/svg">
<path d="M317.88 104.86C311.533 104.86 305.84 103.74 300.8 101.5C295.76 99.1667 291.747 96.04 288.76 92.12C285.867 88.2 284.28 83.86 284 79.1H303.74C304.113 82.0867 305.56 84.56 308.08 86.52C310.693 88.48 313.913 89.46 317.74 89.46C321.473 89.46 324.367 88.7133 326.42 87.22C328.567 85.7267 329.64 83.8133 329.64 81.48C329.64 78.96 328.333 77.0933 325.72 75.88C323.2 74.5733 319.14 73.1733 313.54 71.68C307.753 70.28 302.993 68.8333 299.26 67.34C295.62 65.8467 292.447 63.56 289.74 60.48C287.127 57.4 285.82 53.2467 285.82 48.02C285.82 43.7267 287.033 39.8067 289.46 36.26C291.98 32.7133 295.527 29.9133 300.1 27.86C304.767 25.8067 310.227 24.78 316.48 24.78C325.72 24.78 333.093 27.1133 338.6 31.78C344.107 36.3533 347.14 42.56 347.7 50.4H328.94C328.66 47.32 327.353 44.8933 325.02 43.12C322.78 41.2533 319.747 40.32 315.92 40.32C312.373 40.32 309.62 40.9733 307.66 42.28C305.793 43.5867 304.86 45.4067 304.86 47.74C304.86 50.3533 306.167 52.36 308.78 53.76C311.393 55.0667 315.453 56.42 320.96 57.82C326.56 59.22 331.18 60.6667 334.82 62.16C338.46 63.6533 341.587 65.9867 344.2 69.16C346.907 72.24 348.307 76.3467 348.4 81.48C348.4 85.96 347.14 89.9733 344.62 93.52C342.193 97.0667 338.647 99.8667 333.98 101.92C329.407 103.88 324.04 104.86 317.88 104.86Z" fill="black"/>
<path d="M353.149 64.82C353.149 56.7933 354.782 49.7933 358.049 43.82C361.316 37.7533 365.842 33.0867 371.629 29.82C377.416 26.46 384.042 24.78 391.509 24.78C401.122 24.78 409.056 27.2067 415.309 32.06C421.656 36.82 425.902 43.54 428.049 52.22H406.909C405.789 48.86 403.876 46.2467 401.169 44.38C398.556 42.42 395.289 41.44 391.369 41.44C385.769 41.44 381.336 43.4933 378.069 47.6C374.802 51.6133 373.169 57.3533 373.169 64.82C373.169 72.1933 374.802 77.9333 378.069 82.04C381.336 86.0533 385.769 88.06 391.369 88.06C399.302 88.06 404.482 84.5133 406.909 77.42H428.049C425.902 85.82 421.656 92.4933 415.309 97.44C408.962 102.387 401.029 104.86 391.509 104.86C384.042 104.86 377.416 103.227 371.629 99.96C365.842 96.6 361.316 91.9333 358.049 85.96C354.782 79.8933 353.149 72.8467 353.149 64.82Z" fill="black"/>
<path d="M479.788 24.92C485.668 24.92 490.895 26.2267 495.468 28.84C500.041 31.36 503.588 35.14 506.108 40.18C508.721 45.1267 510.028 51.1 510.028 58.1V103.6H490.428V60.76C490.428 54.6 488.888 49.8867 485.808 46.62C482.728 43.26 478.528 41.58 473.208 41.58C467.795 41.58 463.501 43.26 460.328 46.62C457.248 49.8867 455.708 54.6 455.708 60.76V103.6H436.108V0H455.708V35.7C458.228 32.34 461.588 29.7267 465.788 27.86C469.988 25.9 474.655 24.92 479.788 24.92Z" fill="black"/>
<path d="M565.346 24.92C574.586 24.92 582.053 27.86 587.746 33.74C593.44 39.5267 596.286 47.6467 596.286 58.1V103.6H576.686V60.76C576.686 54.6 575.146 49.8867 572.066 46.62C568.986 43.26 564.786 41.58 559.466 41.58C554.053 41.58 549.76 43.26 546.586 46.62C543.506 49.8867 541.966 54.6 541.966 60.76V103.6H522.366V26.04H541.966V35.7C544.58 32.34 547.893 29.7267 551.906 27.86C556.013 25.9 560.493 24.92 565.346 24.92Z" fill="black"/>
<path d="M680.725 63.14C680.725 65.94 680.538 68.46 680.165 70.7H623.465C623.932 76.3 625.892 80.6867 629.345 83.86C632.798 87.0333 637.045 88.62 642.085 88.62C649.365 88.62 654.545 85.4933 657.625 79.24H678.765C676.525 86.7067 672.232 92.8667 665.885 97.72C659.538 102.48 651.745 104.86 642.505 104.86C635.038 104.86 628.318 103.227 622.345 99.96C616.465 96.6 611.845 91.8867 608.485 85.82C605.218 79.7533 603.585 72.7533 603.585 64.82C603.585 56.7933 605.218 49.7467 608.485 43.68C611.752 37.6133 616.325 32.9467 622.205 29.68C628.085 26.4133 634.852 24.78 642.505 24.78C649.878 24.78 656.458 26.3667 662.245 29.54C668.125 32.7133 672.652 37.24 675.825 43.12C679.092 48.9067 680.725 55.58 680.725 63.14ZM660.425 57.54C660.332 52.5 658.512 48.4867 654.965 45.5C651.418 42.42 647.078 40.88 641.945 40.88C637.092 40.88 632.985 42.3733 629.625 45.36C626.358 48.2533 624.352 52.3133 623.605 57.54H660.425Z" fill="black"/>
<path d="M708.331 0V103.6H688.731V0H708.331Z" fill="black"/>
<path d="M740.996 0V103.6H721.396V0H740.996Z" fill="black"/>
<path d="M284 167.059C284 160.978 285.19 155.585 287.571 150.88C290.023 146.174 293.341 142.554 297.525 140.021C301.709 137.487 306.361 136.22 311.483 136.22C315.378 136.22 319.093 137.089 322.628 138.826C326.162 140.491 328.975 142.735 331.067 145.559V117H346.432V197.355H331.067V188.451C329.192 191.419 326.559 193.808 323.169 195.618C319.778 197.428 315.847 198.333 311.375 198.333C306.325 198.333 301.709 197.03 297.525 194.423C293.341 191.817 290.023 188.162 287.571 183.456C285.19 178.678 284 173.213 284 167.059ZM331.175 167.276C331.175 163.584 330.454 160.435 329.011 157.829C327.569 155.151 325.621 153.124 323.169 151.748C320.716 150.3 318.083 149.577 315.27 149.577C312.457 149.577 309.86 150.264 307.48 151.64C305.099 153.015 303.152 155.042 301.637 157.721C300.194 160.327 299.473 163.44 299.473 167.059C299.473 170.679 300.194 173.864 301.637 176.615C303.152 179.294 305.099 181.357 307.48 182.805C309.932 184.252 312.529 184.976 315.27 184.976C318.083 184.976 320.716 184.289 323.169 182.913C325.621 181.465 327.569 179.438 329.011 176.832C330.454 174.154 331.175 170.968 331.175 167.276Z" fill="black"/>
<path d="M371.505 137.197V197.355H356.357V137.197H371.505Z" fill="black"/>
<path d="M405.082 136.22C409.554 136.22 413.486 137.125 416.876 138.935C420.266 140.672 422.935 142.953 424.883 145.776V137.197H440.139V197.79C440.139 203.364 439.021 208.323 436.785 212.666C434.549 217.082 431.195 220.557 426.722 223.091C422.25 225.697 416.84 227 410.492 227C401.98 227 394.984 225.009 389.501 221.028C384.091 217.046 381.026 211.617 380.304 204.739H395.344C396.138 207.49 397.833 209.662 400.43 211.255C403.099 212.92 406.308 213.752 410.059 213.752C414.46 213.752 418.03 212.413 420.771 209.734C423.512 207.128 424.883 203.147 424.883 197.79V188.451C422.935 191.274 420.23 193.627 416.768 195.509C413.378 197.392 409.482 198.333 405.082 198.333C400.033 198.333 395.416 197.03 391.233 194.423C387.049 191.817 383.731 188.162 381.278 183.456C378.898 178.678 377.708 173.213 377.708 167.059C377.708 160.978 378.898 155.585 381.278 150.88C383.731 146.174 387.013 142.554 391.124 140.021C395.308 137.487 399.961 136.22 405.082 136.22ZM424.883 167.276C424.883 163.584 424.162 160.435 422.719 157.829C421.276 155.151 419.329 153.124 416.876 151.748C414.423 150.3 411.791 149.577 408.977 149.577C406.164 149.577 403.567 150.264 401.187 151.64C398.807 153.015 396.859 155.042 395.344 157.721C393.901 160.327 393.18 163.44 393.18 167.059C393.18 170.679 393.901 173.864 395.344 176.615C396.859 179.294 398.807 181.357 401.187 182.805C403.64 184.252 406.236 184.976 408.977 184.976C411.791 184.976 414.423 184.289 416.876 182.913C419.329 181.465 421.276 179.438 422.719 176.832C424.162 174.154 424.883 170.968 424.883 167.276Z" fill="black"/>
<path d="M465.213 137.197V197.355H450.065V137.197H465.213Z" fill="black"/>
<path d="M492.947 149.685V178.787C492.947 180.814 493.416 182.298 494.353 183.239C495.363 184.108 497.022 184.542 499.331 184.542H506.364V197.355H496.842C484.074 197.355 477.691 191.13 477.691 178.678V149.685H470.549V137.197H477.691V122.321H492.947V137.197H506.364V149.685H492.947Z" fill="black"/>
<path d="M508.495 167.059C508.495 160.978 509.685 155.585 512.065 150.88C514.518 146.174 517.8 142.554 521.912 140.021C526.095 137.487 530.748 136.22 535.869 136.22C540.342 136.22 544.237 137.125 547.555 138.935C550.945 140.745 553.65 143.025 555.67 145.776V137.197H570.926V197.355H555.67V188.56C553.722 191.383 551.017 193.736 547.555 195.618C544.165 197.428 540.233 198.333 535.761 198.333C530.712 198.333 526.095 197.03 521.912 194.423C517.8 191.817 514.518 188.162 512.065 183.456C509.685 178.678 508.495 173.213 508.495 167.059ZM555.67 167.276C555.67 163.584 554.949 160.435 553.506 157.829C552.063 155.151 550.116 153.124 547.663 151.748C545.211 150.3 542.578 149.577 539.765 149.577C536.951 149.577 534.355 150.264 531.974 151.64C529.594 153.015 527.646 155.042 526.131 157.721C524.689 160.327 523.967 163.44 523.967 167.059C523.967 170.679 524.689 173.864 526.131 176.615C527.646 179.294 529.594 181.357 531.974 182.805C534.427 184.252 537.024 184.976 539.765 184.976C542.578 184.976 545.211 184.289 547.663 182.913C550.116 181.465 552.063 179.438 553.506 176.832C554.949 174.154 555.67 170.968 555.67 167.276Z" fill="black"/>
<path d="M596 117V197.355H580.852V117H596Z" fill="black"/>
<circle cx="771.5" cy="59.5" r="12.5" fill="black"/>
<path d="M18.6897 212.528H47.2888C55.1895 212.528 62.769 209.412 68.3816 203.855L92.9386 179.543C104.543 168.055 104.816 149.388 93.5545 137.549L52.6833 94.5802C47.0156 88.6216 39.1526 85.2482 30.9319 85.2482H6.53761e-07L63.7005 151.928C67.4037 155.804 67.3949 161.908 63.6805 165.769L18.6897 212.528Z" fill="#5CC7D3"/>
<path d="M186.177 133.28H157.577C149.677 133.28 142.097 130.164 136.485 124.607L111.928 100.295C100.324 88.8071 100.05 70.1401 111.312 58.3004L152.183 15.332C157.851 9.37341 165.714 5.99998 173.934 5.99998H204.866L141.166 72.6794C137.463 76.5558 137.471 82.6601 141.186 86.5205L186.177 133.28Z" fill="#5CC7D3"/>
</svg>